<svg width="146" height="139" viewBox="0 0 146 139" fill="none" xmlns="http://www.w3.org/2000/svg">
<path d="M23.2759 127.121L20.1664 122.825C19.7071 122.886 19.285 122.916 18.9002 122.916H15.1763V127.121H14.2267V114.269H18.9002C20.5388 114.269 21.8235 114.652 22.7545 115.417C23.6855 116.182 24.151 117.243 24.151 118.602C24.151 119.618 23.8872 120.472 23.3596 121.163C22.8321 121.855 22.078 122.341 21.0973 122.623L24.3558 127.121H23.2759ZM18.9002 122.09C20.2905 122.09 21.3518 121.787 22.0842 121.181C22.8166 120.576 23.1828 119.716 23.1828 118.602C23.1828 117.488 22.8166 116.628 22.0842 116.023C21.3518 115.417 20.2905 115.114 18.9002 115.114H15.1763V122.09H18.9002ZM29.6991 126.359C28.6688 125.79 27.8589 125.009 27.2693 124.018C26.6796 123.026 26.3848 121.919 26.3848 120.695C26.3848 119.471 26.6796 118.363 27.2693 117.372C27.8589 116.381 28.6688 115.6 29.6991 115.031C30.7294 114.462 31.8839 114.177 33.1624 114.177C34.441 114.177 35.5954 114.459 36.6257 115.022C37.656 115.585 38.4659 116.362 39.0556 117.354C39.6452 118.345 39.94 119.459 39.94 120.695C39.94 121.931 39.6452 123.045 39.0556 124.036C38.4659 125.028 37.656 125.805 36.6257 126.368C35.5954 126.931 34.441 127.212 33.1624 127.212C31.8839 127.212 30.7294 126.928 29.6991 126.359ZM36.123 125.615C37.0043 125.126 37.6994 124.449 38.2084 123.586C38.7173 122.724 38.9718 121.76 38.9718 120.695C38.9718 119.63 38.7173 118.666 38.2084 117.803C37.6994 116.94 37.0043 116.264 36.123 115.775C35.2416 115.285 34.2548 115.04 33.1624 115.04C32.07 115.04 31.0801 115.285 30.1926 115.775C29.305 116.264 28.6068 116.94 28.0978 117.803C27.5889 118.666 27.3344 119.63 27.3344 120.695C27.3344 121.76 27.5889 122.724 28.0978 123.586C28.6068 124.449 29.305 125.126 30.1926 125.615C31.0801 126.105 32.07 126.349 33.1624 126.349C34.2548 126.349 35.2416 126.105 36.123 125.615ZM53.1137 121.576C53.604 122.127 53.8492 122.843 53.8492 123.724C53.8492 124.813 53.4458 125.652 52.6389 126.239C51.8321 126.827 50.6342 127.121 49.0453 127.121H43.2359V114.269H48.6729C50.088 114.269 51.1897 114.554 51.9779 115.123C52.7662 115.692 53.1603 116.503 53.1603 117.555C53.1603 118.29 52.9648 118.908 52.5737 119.41C52.1827 119.912 51.6521 120.273 50.9818 120.493C51.9127 120.664 52.6234 121.025 53.1137 121.576ZM44.1855 115.077V120.199H48.6357C49.7777 120.199 50.6559 119.982 51.2704 119.547C51.8848 119.113 52.192 118.473 52.192 117.629C52.192 116.797 51.8848 116.163 51.2704 115.729C50.6559 115.294 49.7777 115.077 48.6357 115.077H44.1855ZM51.9221 125.661C52.5737 125.227 52.8996 124.556 52.8996 123.651C52.8996 122.745 52.5737 122.078 51.9221 121.65C51.2704 121.221 50.3114 121.007 49.0453 121.007H44.1855V126.313H49.0453C50.3114 126.313 51.2704 126.096 51.9221 125.661ZM59.3051 126.359C58.2748 125.79 57.4648 125.009 56.8752 124.018C56.2855 123.026 55.9907 121.919 55.9907 120.695C55.9907 119.471 56.2855 118.363 56.8752 117.372C57.4648 116.381 58.2748 115.6 59.3051 115.031C60.3353 114.462 61.4898 114.177 62.7683 114.177C64.0469 114.177 65.2013 114.459 66.2316 115.022C67.2619 115.585 68.0719 116.362 68.6615 117.354C69.2511 118.345 69.5459 119.459 69.5459 120.695C69.5459 121.931 69.2511 123.045 68.6615 124.036C68.0719 125.028 67.2619 125.805 66.2316 126.368C65.2013 126.931 64.0469 127.212 62.7683 127.212C61.4898 127.212 60.3353 126.928 59.3051 126.359ZM65.7289 125.615C66.6102 125.126 67.3053 124.449 67.8143 123.586C68.3232 122.724 68.5777 121.76 68.5777 120.695C68.5777 119.63 68.3232 118.666 67.8143 117.803C67.3053 116.94 66.6102 116.264 65.7289 115.775C64.8475 115.285 63.8607 115.04 62.7683 115.04C61.676 115.04 60.686 115.285 59.7985 115.775C58.9109 116.264 58.2127 116.94 57.7038 117.803C57.1948 118.666 56.9403 119.63 56.9403 120.695C56.9403 121.76 57.1948 122.724 57.7038 123.586C58.2127 124.449 58.9109 125.126 59.7985 125.615C60.686 126.105 61.676 126.349 62.7683 126.349C63.8607 126.349 64.8475 126.105 65.7289 125.615ZM73.5401 126.726C72.6774 126.401 72.004 125.982 71.5199 125.468L71.9481 124.771C72.4074 125.248 73.025 125.637 73.8008 125.936C74.5766 126.236 75.3928 126.386 76.2493 126.386C77.4906 126.386 78.4278 126.154 79.0609 125.689C79.6939 125.223 80.0105 124.618 80.0105 123.871C80.0105 123.296 79.8429 122.837 79.5077 122.494C79.1726 122.151 78.7567 121.888 78.2602 121.705C77.7637 121.521 77.0934 121.331 76.2493 121.136C75.2935 120.903 74.5269 120.677 73.9497 120.456C73.3725 120.236 72.8822 119.896 72.4788 119.437C72.0753 118.978 71.8736 118.363 71.8736 117.592C71.8736 116.968 72.0412 116.396 72.3764 115.876C72.7115 115.355 73.2236 114.942 73.9125 114.636C74.6014 114.33 75.461 114.177 76.4913 114.177C77.2113 114.177 77.9188 114.281 78.614 114.49C79.3091 114.698 79.9112 114.979 80.4201 115.334L80.0663 116.087C79.545 115.732 78.9709 115.463 78.344 115.279C77.7171 115.095 77.0996 115.004 76.4913 115.004C75.2873 115.004 74.3749 115.242 73.7542 115.72C73.1336 116.197 72.8232 116.815 72.8232 117.574C72.8232 118.149 72.9908 118.608 73.326 118.951C73.6611 119.293 74.077 119.557 74.5735 119.74C75.07 119.924 75.7465 120.12 76.6031 120.328C77.5589 120.56 78.3223 120.787 78.8933 121.007C79.4643 121.227 79.9515 121.561 80.3549 122.008C80.7584 122.454 80.9601 123.057 80.9601 123.816C80.9601 124.44 80.7894 125.009 80.448 125.523C80.1067 126.037 79.5822 126.447 78.8747 126.753C78.1671 127.059 77.2982 127.212 76.2679 127.212C75.3121 127.212 74.4028 127.05 73.5401 126.726ZM86.4901 115.114H81.7979V114.269H92.1319V115.114H87.4397V127.121H86.4901V115.114ZM96.3582 126.359C95.3279 125.79 94.5179 125.009 93.9283 124.018C93.3387 123.026 93.0439 121.919 93.0439 120.695C93.0439 119.471 93.3387 118.363 93.9283 117.372C94.5179 116.381 95.3279 115.6 96.3582 115.031C97.3885 114.462 98.5429 114.177 99.8215 114.177C101.1 114.177 102.254 114.459 103.285 115.022C104.315 115.585 105.125 116.362 105.715 117.354C106.304 118.345 106.599 119.459 106.599 120.695C106.599 121.931 106.304 123.045 105.715 124.036C105.125 125.028 104.315 125.805 103.285 126.368C102.254 126.931 101.1 127.212 99.8215 127.212C98.5429 127.212 97.3885 126.928 96.3582 126.359ZM102.782 125.615C103.663 125.126 104.358 124.449 104.867 123.586C105.376 122.724 105.631 121.76 105.631 120.695C105.631 119.63 105.376 118.666 104.867 117.803C104.358 116.94 103.663 116.264 102.782 115.775C101.901 115.285 100.914 115.04 99.8215 115.04C98.7291 115.04 97.7392 115.285 96.8516 115.775C95.9641 116.264 95.2658 116.94 94.7569 117.803C94.248 118.666 93.9935 119.63 93.9935 120.695C93.9935 121.76 94.248 122.724 94.7569 123.586C95.2658 124.449 95.9641 125.126 96.8516 125.615C97.7392 126.105 98.7291 126.349 99.8215 126.349C100.914 126.349 101.901 126.105 102.782 125.615ZM111.952 126.368C110.928 125.805 110.122 125.028 109.532 124.036C108.942 123.045 108.647 121.931 108.647 120.695C108.647 119.459 108.942 118.345 109.532 117.354C110.122 116.362 110.928 115.585 111.952 115.022C112.977 114.459 114.128 114.177 115.406 114.177C116.35 114.177 117.219 114.327 118.013 114.627C118.808 114.927 119.484 115.371 120.043 115.958L119.447 116.564C118.404 115.548 117.07 115.04 115.444 115.04C114.351 115.04 113.358 115.285 112.465 115.775C111.571 116.264 110.869 116.94 110.361 117.803C109.852 118.666 109.597 119.63 109.597 120.695C109.597 121.76 109.852 122.724 110.361 123.586C110.869 124.449 111.571 125.126 112.465 125.615C113.358 126.105 114.351 126.349 115.444 126.349C117.057 126.349 118.392 125.835 119.447 124.807L120.043 125.413C119.484 126.001 118.805 126.447 118.004 126.753C117.203 127.059 116.337 127.212 115.406 127.212C114.128 127.212 112.977 126.931 111.952 126.368ZM127.1 120.787L124.176 123.742V127.121H123.227V114.269H124.176V122.531L132.313 114.269H133.468L127.733 120.107L133.859 127.121H132.704L127.1 120.787Z" fill="#1513A0"/>
<mask id="mask0_2669_24029" style="mask-type:luminance" maskUnits="userSpaceOnUse" x="20" y="11" width="106" height="101">
<path d="M20.1335 11.7877H125.866V111.118H20.1335V11.7877Z" fill="white"/>
</mask>
<g mask="url(#mask0_2669_24029)">
<mask id="mask1_2669_24029" style="mask-type:luminance" maskUnits="userSpaceOnUse" x="20" y="11" width="106" height="101">
<path d="M20.1335 11.7877H125.866V111.118H20.1335V11.7877Z" fill="white"/>
</mask>
<g mask="url(#mask1_2669_24029)">
<path d="M24.1975 68.3601C24.1517 68.7213 24.1059 69.0712 24.083 69.3986C24.0029 70.2339 23.9686 70.9788 23.9686 71.4868C23.9686 71.5771 23.9342 71.6674 23.8884 71.7351C23.7968 71.8593 23.648 71.9383 23.4763 71.927C23.213 71.9044 22.9955 71.6787 22.9955 71.4078C22.9955 71.182 23.0069 70.5273 23.0642 69.6582C23.0871 69.3421 23.1214 68.9922 23.1558 68.631C23.2702 67.6038 23.4649 66.4299 23.7968 65.3802C23.8839 65.107 23.9823 64.8395 24.0911 64.5844L20.4186 56.1356C20.2297 57.8818 20.1335 59.6551 20.1335 61.451C20.1335 77.5144 27.8677 91.7966 39.8651 100.874L24.6783 65.9367C24.4608 66.6974 24.3028 67.5429 24.1975 68.3601Z" fill="#6FA6EB"/>
</g>
<mask id="mask2_2669_24029" style="mask-type:luminance" maskUnits="userSpaceOnUse" x="20" y="11" width="106" height="101">
<path d="M20.1335 11.7877H125.866V111.118H20.1335V11.7877Z" fill="white"/>
</mask>
<g mask="url(#mask2_2669_24029)">
<path d="M47.6772 92.493L47.1964 92.4479V87.5434L41.2149 73.7804L36.6998 71.1515C35.9946 71.6064 35.1772 71.9304 34.3186 71.8028C33.46 71.6674 32.6816 71.1143 32.0176 70.1322C31.5356 69.4234 31.1819 68.5791 30.8499 67.7449L25.2404 64.4783C25.1466 64.6566 25.0584 64.8496 24.9771 65.0528C24.8672 65.3282 24.7688 65.6251 24.6795 65.9366L39.8663 100.876C44.8061 104.615 50.4694 107.471 56.6123 109.205L47.6784 88.6507L47.6772 92.493Z" fill="#819AE2"/>
</g>
<mask id="mask3_2669_24029" style="mask-type:luminance" maskUnits="userSpaceOnUse" x="20" y="11" width="106" height="101">
<path d="M20.1335 11.7877H125.866V111.118H20.1335V11.7877Z" fill="white"/>
</mask>
<g mask="url(#mask3_2669_24029)">
<path d="M24.2433 64.2514C24.7585 63.1791 25.4911 62.4115 26.51 62.3325C27.2656 62.2761 28.0097 62.468 28.6966 62.8743C29.0171 63.0662 29.3262 63.3032 29.6238 63.5967C29.9902 63.9466 30.3107 64.3756 30.5969 64.8609C30.8373 65.2786 31.0548 65.7301 31.2494 66.1929C31.3754 66.4976 31.5013 66.8024 31.6158 67.1072C31.6272 67.1297 31.6387 67.1636 31.6501 67.1862C32.005 68.1005 32.3484 68.9583 32.8178 69.6469C33.3215 70.3806 33.8367 70.7757 34.4091 70.866C35.4623 71.0353 36.5498 70.121 37.2825 69.4324C37.7805 68.9674 38.2819 68.5531 38.7845 68.1908L25.854 38.4423C22.9909 43.8332 21.102 49.8078 20.4186 56.1367L24.0911 64.5855C24.1391 64.4704 24.1907 64.3598 24.2433 64.2514Z" fill="#819AE2"/>
</g>
<mask id="mask4_2669_24029" style="mask-type:luminance" maskUnits="userSpaceOnUse" x="20" y="11" width="106" height="101">
<path d="M20.1335 11.7877H125.866V111.118H20.1335V11.7877Z" fill="white"/>
</mask>
<g mask="url(#mask4_2669_24029)">
<path d="M47.1964 87.5434V77.2638L41.2149 73.7804L47.1964 87.5434Z" fill="#938ED8"/>
</g>
<mask id="mask5_2669_24029" style="mask-type:luminance" maskUnits="userSpaceOnUse" x="20" y="11" width="106" height="101">
<path d="M20.1335 11.7877H125.866V111.118H20.1335V11.7877Z" fill="white"/>
</mask>
<g mask="url(#mask5_2669_24029)">
<path d="M49.2227 68.0328C50.941 69.2496 52.6731 71.1854 54.2815 73.6461L47.6978 58.4981L44.1856 60.5265L34.6151 54.544L34.0427 34.5311L36.6311 33.0366L34.0736 27.1535C30.8282 30.5037 28.0532 34.3008 25.854 38.4423L38.7845 68.1908C42.2509 65.6951 45.8238 65.6375 49.2227 68.0328Z" fill="#938ED8"/>
</g>
<mask id="mask6_2669_24029" style="mask-type:luminance" maskUnits="userSpaceOnUse" x="20" y="11" width="106" height="101">
<path d="M20.1335 11.7877H125.866V111.118H20.1335V11.7877Z" fill="white"/>
</mask>
<g mask="url(#mask6_2669_24029)">
<path d="M63.0861 101.128L62.6053 101.094V92.7955L60.8331 88.7184C59.8028 87.3854 58.9408 85.5489 58.1257 83.6277L47.6772 77.5437V88.6496L56.6112 109.204C61.0243 110.451 65.6848 111.118 70.5043 111.118H70.5696L63.0861 93.9017V101.128Z" fill="#938ED8"/>
</g>
<mask id="mask7_2669_24029" style="mask-type:luminance" maskUnits="userSpaceOnUse" x="20" y="11" width="106" height="101">
<path d="M20.1335 11.7877H125.866V111.118H20.1335V11.7877Z" fill="white"/>
</mask>
<g mask="url(#mask7_2669_24029)">
<path d="M39.263 31.5173L48.8334 37.4997L49.4058 57.5127L47.6978 58.4981L54.2815 73.6461C55.5671 75.6124 56.7737 77.9128 57.8315 80.4491C57.9918 80.8329 58.152 81.228 58.3238 81.6343C59.6517 84.8626 61.1514 88.5198 63.0975 89.5582C64.3912 90.2468 65.5588 88.6891 67.1959 86.2284C68.3647 84.463 69.5736 82.6468 71.087 82.1095L66.1083 70.6549L63.1319 72.3672L53.5614 66.3848L52.9856 40.4661L43.7998 19.3334C40.2326 21.5368 36.9665 24.1679 34.0725 27.1546L36.63 33.0377L39.263 31.5173Z" fill="#A583CE"/>
</g>
<mask id="mask8_2669_24029" style="mask-type:luminance" maskUnits="userSpaceOnUse" x="20" y="11" width="106" height="101">
<path d="M20.1335 11.7877H125.866V111.118H20.1335V11.7877Z" fill="white"/>
</mask>
<g mask="url(#mask8_2669_24029)">
<path d="M62.6053 90.3405C61.9573 89.977 61.3723 89.4171 60.8331 88.7184L62.6053 92.7955V90.3405Z" fill="#A583CE"/>
</g>
<mask id="mask9_2669_24029" style="mask-type:luminance" maskUnits="userSpaceOnUse" x="20" y="11" width="106" height="101">
<path d="M20.1335 11.7877H125.866V111.118H20.1335V11.7877Z" fill="white"/>
</mask>
<g mask="url(#mask9_2669_24029)">
<path d="M73.2175 92.4162V104.232L72.7367 104.187V92.1363L66.7162 88.6304C65.647 90.0233 64.493 91.0233 63.1204 90.5741L63.0861 90.5628V93.9006L70.5696 111.118C74.8683 111.112 79.0411 110.576 83.0238 109.571L76.3634 94.2471L73.2175 92.4162Z" fill="#A583CE"/>
</g>
<mask id="mask10_2669_24029" style="mask-type:luminance" maskUnits="userSpaceOnUse" x="20" y="11" width="106" height="101">
<path d="M20.1335 11.7877H125.866V111.118H20.1335V11.7877Z" fill="white"/>
</mask>
<g mask="url(#mask10_2669_24029)">
<path d="M52.7028 27.702L57.9345 24.6995L59.7548 25.8385L54.7268 14.272C50.8563 15.5295 47.193 17.2373 43.8009 19.3334L52.9867 40.4661L52.7028 27.702Z" fill="#B777C4"/>
</g>
<mask id="mask11_2669_24029" style="mask-type:luminance" maskUnits="userSpaceOnUse" x="20" y="11" width="106" height="101">
<path d="M20.1335 11.7877H125.866V111.118H20.1335V11.7877Z" fill="white"/>
</mask>
<g mask="url(#mask11_2669_24029)">
<path d="M82.0668 84.2192L72.5077 78.2367L72.0304 54.0801L67.7969 44.3411L68.3521 69.3647L66.1084 70.6548L71.0871 82.1084C71.1889 82.0723 71.2931 82.0418 71.3973 82.0169C73.0229 81.6445 75.5987 83.1457 76.8465 85.9676C77.4532 87.3334 77.6707 88.4735 77.8654 89.4781C78.1058 90.7536 78.3118 91.8598 79.2849 93.1353C80.2809 94.4333 81.3341 95.2009 82.3301 95.3589C83.0284 95.4718 83.6695 95.2799 84.2648 94.7945C84.9402 94.2527 85.6728 91.9388 86.4627 89.5006C86.5967 89.0853 86.7341 88.6608 86.8737 88.2308L84.5166 82.8082L82.0668 84.2192Z" fill="#B777C4"/>
</g>
<mask id="mask12_2669_24029" style="mask-type:luminance" maskUnits="userSpaceOnUse" x="20" y="11" width="106" height="101">
<path d="M20.1335 11.7877H125.866V111.118H20.1335V11.7877Z" fill="white"/>
</mask>
<g mask="url(#mask12_2669_24029)">
<path d="M76.3622 94.2471L83.0226 109.571C86.9802 108.573 90.7511 107.113 94.2714 105.251L93.9359 104.48L76.3622 94.2471Z" fill="#B777C4"/>
</g>
<mask id="mask13_2669_24029" style="mask-type:luminance" maskUnits="userSpaceOnUse" x="20" y="11" width="106" height="101">
<path d="M20.1335 11.7877H125.866V111.118H20.1335V11.7877Z" fill="white"/>
</mask>
<g mask="url(#mask13_2669_24029)">
<path d="M86.8382 57.9506L87.2984 81.2054L84.5166 82.8082L86.8737 88.2319C87.7919 85.4258 88.8737 82.3917 90.3436 80.1895C90.4352 80.054 90.5153 79.9299 90.6069 79.8057C90.8691 79.4479 91.1415 79.116 91.4266 78.8158L91.4117 68.4729L86.8382 57.9506Z" fill="#C96BBA"/>
</g>
<mask id="mask14_2669_24029" style="mask-type:luminance" maskUnits="userSpaceOnUse" x="20" y="11" width="106" height="101">
<path d="M20.1335 11.7877H125.866V111.118H20.1335V11.7877Z" fill="white"/>
</mask>
<g mask="url(#mask14_2669_24029)">
<path d="M67.4936 30.682L67.7969 44.3411L72.0304 54.0801L71.8552 45.243L77.0755 42.2292L81.0983 44.7441L66.8296 11.9163C62.6316 12.2143 58.5768 13.0202 54.7268 14.2709L59.7548 25.8373L67.4936 30.682Z" fill="#C96BBA"/>
</g>
<mask id="mask15_2669_24029" style="mask-type:luminance" maskUnits="userSpaceOnUse" x="20" y="11" width="106" height="101">
<path d="M20.1335 11.7877H125.866V111.118H20.1335V11.7877Z" fill="white"/>
</mask>
<g mask="url(#mask15_2669_24029)">
<path d="M94.2725 105.251C94.4454 105.16 94.6171 105.069 94.7877 104.975L93.9371 104.479L94.2725 105.251Z" fill="#C96BBA"/>
</g>
<mask id="mask16_2669_24029" style="mask-type:luminance" maskUnits="userSpaceOnUse" x="20" y="11" width="106" height="101">
<path d="M20.1335 11.7877H125.866V111.118H20.1335V11.7877Z" fill="white"/>
</mask>
<g mask="url(#mask16_2669_24029)">
<path d="M103.606 98.8886C103.669 98.8344 103.732 98.7803 103.795 98.7261L103.774 98.7441C103.717 98.7927 103.661 98.8401 103.606 98.8886Z" fill="#C96BBA"/>
</g>
<mask id="mask17_2669_24029" style="mask-type:luminance" maskUnits="userSpaceOnUse" x="20" y="11" width="106" height="101">
<path d="M20.1335 11.7877H125.866V111.118H20.1335V11.7877Z" fill="white"/>
</mask>
<g mask="url(#mask17_2669_24029)">
<path d="M96.9445 103.733L96.9889 103.705L96.9556 103.725L96.9445 103.733Z" fill="#C96BBA"/>
</g>
<mask id="mask18_2669_24029" style="mask-type:luminance" maskUnits="userSpaceOnUse" x="20" y="11" width="106" height="101">
<path d="M20.1335 11.7877H125.866V111.118H20.1335V11.7877Z" fill="white"/>
</mask>
<g mask="url(#mask18_2669_24029)">
<path d="M106.205 72.3062L106.233 93.0461L104.375 94.1184C104.485 94.86 104.593 95.6197 104.699 96.3872C104.762 96.8376 104.824 97.2925 104.886 97.7485C106.917 95.8782 108.79 93.843 110.485 91.6667L110.572 82.3511L106.205 72.3062Z" fill="#DB5FB1"/>
</g>
<mask id="mask19_2669_24029" style="mask-type:luminance" maskUnits="userSpaceOnUse" x="20" y="11" width="106" height="101">
<path d="M20.1335 11.7877H125.866V111.118H20.1335V11.7877Z" fill="white"/>
</mask>
<g mask="url(#mask19_2669_24029)">
<path d="M86.6459 48.2117L86.8382 57.9506L91.4117 68.4741L91.3693 38.1781L80.3072 12.7279C77.1361 12.1116 73.8586 11.7877 70.5032 11.7877C69.2668 11.7877 68.0419 11.8317 66.8284 11.9175L81.0971 44.7441L86.6459 48.2117Z" fill="#DB5FB1"/>
</g>
<mask id="mask20_2669_24029" style="mask-type:luminance" maskUnits="userSpaceOnUse" x="20" y="11" width="106" height="101">
<path d="M20.1335 11.7877H125.866V111.118H20.1335V11.7877Z" fill="white"/>
</mask>
<g mask="url(#mask20_2669_24029)">
<path d="M106.205 72.3063L110.571 82.3511L110.846 52.7855L106.162 42.0092L106.205 72.3063Z" fill="#ED53A7"/>
</g>
<mask id="mask21_2669_24029" style="mask-type:luminance" maskUnits="userSpaceOnUse" x="20" y="11" width="106" height="101">
<path d="M20.1335 11.7877H125.866V111.118H20.1335V11.7877Z" fill="white"/>
</mask>
<g mask="url(#mask21_2669_24029)">
<path d="M91.3625 32.5783L96.5942 29.5645L102.307 33.1393L95.9886 18.602C91.2102 15.8331 85.927 13.8183 80.3083 12.7256L91.3705 38.1758L91.3625 32.5783Z" fill="#ED53A7"/>
</g>
<mask id="mask22_2669_24029" style="mask-type:luminance" maskUnits="userSpaceOnUse" x="20" y="11" width="106" height="101">
<path d="M20.1335 11.7877H125.866V111.118H20.1335V11.7877Z" fill="white"/>
</mask>
<g mask="url(#mask22_2669_24029)">
<path d="M106.153 35.547L106.162 42.0091L110.846 52.7843L111.039 31.9631C106.997 26.5711 101.875 22.0131 95.9886 18.602L102.307 33.1393L106.153 35.547Z" fill="#FF479D"/>
</g>
<mask id="mask23_2669_24029" style="mask-type:luminance" maskUnits="userSpaceOnUse" x="20" y="11" width="106" height="101">
<path d="M20.1335 11.7877H125.866V111.118H20.1335V11.7877Z" fill="white"/>
</mask>
<g mask="url(#mask23_2669_24029)">
<path d="M48.8334 37.4998L43.6132 40.5135L44.1856 60.5265L47.6978 58.4981L49.4058 57.5127L48.8334 37.4998Z" fill="#0DB7CE"/>
</g>
<mask id="mask24_2669_24029" style="mask-type:luminance" maskUnits="userSpaceOnUse" x="20" y="11" width="106" height="101">
<path d="M20.1335 11.7877H125.866V111.118H20.1335V11.7877Z" fill="white"/>
</mask>
<g mask="url(#mask24_2669_24029)">
<path d="M67.7969 44.3412L67.4935 30.682L62.2733 33.6845L63.1319 72.3672L66.1083 70.6549L68.3521 69.3647L67.7969 44.3412Z" fill="#0DB7CE"/>
</g>
<mask id="mask25_2669_24029" style="mask-type:luminance" maskUnits="userSpaceOnUse" x="20" y="11" width="106" height="101">
<path d="M20.1335 11.7877H125.866V111.118H20.1335V11.7877Z" fill="white"/>
</mask>
<g mask="url(#mask25_2669_24029)">
<path d="M81.4142 51.2255L82.0667 84.2192L84.5166 82.8082L87.2984 81.2054L86.8382 57.9506L86.6459 48.2117L81.4142 51.2255Z" fill="#0DB7CE"/>
</g>
<mask id="mask26_2669_24029" style="mask-type:luminance" maskUnits="userSpaceOnUse" x="20" y="11" width="106" height="101">
<path d="M20.1335 11.7877H125.866V111.118H20.1335V11.7877Z" fill="white"/>
</mask>
<g mask="url(#mask26_2669_24029)">
<path d="M106.153 35.547L100.933 38.5608L100.992 81.4831C101.281 81.9425 101.551 82.4313 101.803 82.9437C102.707 84.8175 103.486 88.4747 104.173 92.7978C104.241 93.2313 104.309 93.6715 104.375 94.1185L106.233 93.0461L106.205 72.3063L106.162 42.0103L106.153 35.547Z" fill="#0DB7CE"/>
</g>
<mask id="mask27_2669_24029" style="mask-type:luminance" maskUnits="userSpaceOnUse" x="20" y="11" width="106" height="101">
<path d="M20.1335 11.7877H125.866V111.118H20.1335V11.7877Z" fill="white"/>
</mask>
<g mask="url(#mask27_2669_24029)">
<path d="M43.6132 40.5135L48.8334 37.4997L39.263 31.5173L36.6311 33.0366L34.0427 34.5311L43.6132 40.5135Z" fill="#219CE2"/>
</g>
<mask id="mask28_2669_24029" style="mask-type:luminance" maskUnits="userSpaceOnUse" x="20" y="11" width="106" height="101">
<path d="M20.1335 11.7877H125.866V111.118H20.1335V11.7877Z" fill="white"/>
</mask>
<g mask="url(#mask28_2669_24029)">
<path d="M67.4935 30.682L59.7547 25.8385L57.9345 24.6996L52.7028 27.7021L62.2733 33.6845L67.4935 30.682Z" fill="#219CE2"/>
</g>
<mask id="mask29_2669_24029" style="mask-type:luminance" maskUnits="userSpaceOnUse" x="20" y="11" width="106" height="101">
<path d="M20.1335 11.7877H125.866V111.118H20.1335V11.7877Z" fill="white"/>
</mask>
<g mask="url(#mask29_2669_24029)">
<path d="M86.6459 48.2117L81.0982 44.7441L77.0754 42.2292L71.8552 45.243L81.4142 51.2255L86.6459 48.2117Z" fill="#219CE2"/>
</g>
<mask id="mask30_2669_24029" style="mask-type:luminance" maskUnits="userSpaceOnUse" x="20" y="11" width="106" height="101">
<path d="M20.1335 11.7877H125.866V111.118H20.1335V11.7877Z" fill="white"/>
</mask>
<g mask="url(#mask30_2669_24029)">
<path d="M100.933 38.5607L91.3625 32.5783L91.3705 38.177L91.4128 68.4729L91.4277 78.8158C91.8891 78.3304 92.3825 77.9275 92.9205 77.6272C93.7219 77.187 94.6148 77.029 95.5535 77.1757C95.8512 77.2209 96.1488 77.2999 96.4465 77.4015C96.9273 77.5708 97.4081 77.8191 97.8775 78.1239C98.7017 78.677 99.4916 79.4332 100.213 80.3588C100.373 80.562 100.522 80.7765 100.671 80.9909C100.781 81.1512 100.888 81.3149 100.994 81.4831L100.933 38.5607Z" fill="#05E2C6"/>
</g>
<mask id="mask31_2669_24029" style="mask-type:luminance" maskUnits="userSpaceOnUse" x="20" y="11" width="106" height="101">
<path d="M20.1335 11.7877H125.866V111.118H20.1335V11.7877Z" fill="white"/>
</mask>
<g mask="url(#mask31_2669_24029)">
<path d="M106.153 35.547L102.307 33.1393L96.5942 29.5645L91.3625 32.5783L100.933 38.5607L106.153 35.547Z" fill="#219CE2"/>
</g>
<mask id="mask32_2669_24029" style="mask-type:luminance" maskUnits="userSpaceOnUse" x="20" y="11" width="106" height="101">
<path d="M20.1335 11.7877H125.866V111.118H20.1335V11.7877Z" fill="white"/>
</mask>
<g mask="url(#mask32_2669_24029)">
<path d="M43.6132 40.5135L34.0427 34.5311L34.6151 54.544L44.1856 60.5265L43.6132 40.5135Z" fill="#05E2C6"/>
</g>
<mask id="mask33_2669_24029" style="mask-type:luminance" maskUnits="userSpaceOnUse" x="20" y="11" width="106" height="101">
<path d="M20.1335 11.7877H125.866V111.118H20.1335V11.7877Z" fill="white"/>
</mask>
<g mask="url(#mask33_2669_24029)">
<path d="M62.2733 33.6845L52.7028 27.7021L52.9856 40.4661L53.5614 66.3848L63.1319 72.3672L62.2733 33.6845Z" fill="#05E2C6"/>
</g>
<mask id="mask34_2669_24029" style="mask-type:luminance" maskUnits="userSpaceOnUse" x="20" y="11" width="106" height="101">
<path d="M20.1335 11.7877H125.866V111.118H20.1335V11.7877Z" fill="white"/>
</mask>
<g mask="url(#mask34_2669_24029)">
<path d="M82.0667 84.2192L81.4142 51.2255L71.8552 45.243L72.0304 54.0801L72.5077 78.2368L82.0667 84.2192Z" fill="#05E2C6"/>
</g>
<mask id="mask35_2669_24029" style="mask-type:luminance" maskUnits="userSpaceOnUse" x="20" y="11" width="106" height="101">
<path d="M20.1335 11.7877H125.866V111.118H20.1335V11.7877Z" fill="white"/>
</mask>
<g mask="url(#mask35_2669_24029)">
<path d="M125.866 31.0319L116.307 25.0495L111.076 28.052L120.646 34.0344L125.866 31.0319Z" fill="#219CE2"/>
</g>
<mask id="mask36_2669_24029" style="mask-type:luminance" maskUnits="userSpaceOnUse" x="20" y="11" width="106" height="101">
<path d="M20.1335 11.7877H125.866V111.118H20.1335V11.7877Z" fill="white"/>
</mask>
<g mask="url(#mask36_2669_24029)">
<path d="M120.646 34.0344L119.959 107.901L125.18 104.898L125.866 31.0319L120.646 34.0344Z" fill="#0DB7CE"/>
</g>
<mask id="mask37_2669_24029" style="mask-type:luminance" maskUnits="userSpaceOnUse" x="20" y="11" width="106" height="101">
<path d="M20.1335 11.7877H125.866V111.118H20.1335V11.7877Z" fill="white"/>
</mask>
<g mask="url(#mask37_2669_24029)">
<path d="M120.646 34.0344L111.076 28.052L111.039 31.9643L110.846 52.7854L110.571 82.3511L110.484 91.6668L110.389 101.918L119.959 107.901L120.646 34.0344Z" fill="#05E2C6"/>
</g>
<mask id="mask38_2669_24029" style="mask-type:luminance" maskUnits="userSpaceOnUse" x="20" y="11" width="106" height="101">
<path d="M20.1335 11.7877H125.866V111.118H20.1335V11.7877Z" fill="white"/>
</mask>
<g mask="url(#mask38_2669_24029)">
<path d="M30.7343 67.4571C30.7228 67.4345 30.7228 67.4232 30.7114 67.4006C30.5969 67.0959 30.471 66.7911 30.3451 66.4863C30.1619 66.0574 29.9787 65.651 29.7612 65.2785C29.4327 64.7187 29.0469 64.2706 28.6164 63.9331L27.7922 63.4533C27.6376 63.3935 27.4808 63.3472 27.3228 63.3145C27.1053 63.2694 26.8763 63.2581 26.6588 63.2806C26.281 63.3145 25.9491 63.5064 25.6743 63.8337C25.514 64.0109 25.3698 64.2311 25.2393 64.4783L30.8488 67.7449C30.8098 67.6489 30.7721 67.553 30.7343 67.4571Z" fill="#FFE4A1"/>
</g>
<mask id="mask39_2669_24029" style="mask-type:luminance" maskUnits="userSpaceOnUse" x="20" y="11" width="106" height="101">
<path d="M20.1335 11.7877H125.866V111.118H20.1335V11.7877Z" fill="white"/>
</mask>
<g mask="url(#mask39_2669_24029)">
<path d="M47.1964 77.2638V74.7512L38.48 69.6751C38.3059 69.8241 38.1319 69.9799 37.9579 70.1424C37.6053 70.4709 37.1783 70.8411 36.6987 71.1504L41.2137 73.7793L47.1964 77.2638Z" fill="#FFE4A1"/>
</g>
<mask id="mask40_2669_24029" style="mask-type:luminance" maskUnits="userSpaceOnUse" x="20" y="11" width="106" height="101">
<path d="M20.1335 11.7877H125.866V111.118H20.1335V11.7877Z" fill="white"/>
</mask>
<g mask="url(#mask40_2669_24029)">
<path d="M96.1133 103.235V104.229C96.1191 104.225 96.1236 104.222 96.1294 104.22C96.1282 104.221 96.1305 104.219 96.1294 104.22C96.1809 104.189 96.237 104.157 96.2885 104.126C96.2931 104.124 96.2977 104.12 96.3011 104.118C96.3515 104.088 96.403 104.058 96.4533 104.028C96.4614 104.023 96.4694 104.018 96.4785 104.013C96.5255 103.985 96.5713 103.958 96.6182 103.93C96.6228 103.926 96.6285 103.924 96.6331 103.921C96.68 103.892 96.7269 103.864 96.7739 103.836C96.7888 103.827 96.8037 103.818 96.8185 103.809C96.8609 103.784 96.9021 103.758 96.9445 103.732C96.9479 103.73 96.9525 103.728 96.9559 103.725L96.1133 103.235Z" fill="#FFE4A1"/>
</g>
<mask id="mask41_2669_24029" style="mask-type:luminance" maskUnits="userSpaceOnUse" x="20" y="11" width="106" height="101">
<path d="M20.1335 11.7877H125.866V111.118H20.1335V11.7877Z" fill="white"/>
</mask>
<g mask="url(#mask41_2669_24029)">
<path d="M95.6211 102.949L83.9236 96.1378C83.3878 96.3477 82.8166 96.4098 82.227 96.3195C80.9563 96.1276 79.6741 95.2133 78.5064 93.6895C78.2111 93.3023 77.9764 92.9287 77.7864 92.5641L73.2175 89.9036V92.4162L76.3622 94.2471L93.9359 104.48L94.7865 104.976C94.8403 104.947 94.8941 104.917 94.9468 104.888C94.9434 104.89 94.9502 104.886 94.9468 104.888C94.9995 104.859 95.0636 104.824 95.1162 104.794C95.1219 104.791 95.1277 104.787 95.1345 104.784C95.1815 104.758 95.2284 104.732 95.2753 104.706C95.2834 104.702 95.2914 104.697 95.2982 104.694C95.3463 104.667 95.3944 104.641 95.4413 104.614C95.4551 104.606 95.4677 104.599 95.4814 104.591C95.5272 104.565 95.5741 104.539 95.6199 104.512L95.6211 102.949Z" fill="#FFE4A1"/>
</g>
<mask id="mask42_2669_24029" style="mask-type:luminance" maskUnits="userSpaceOnUse" x="20" y="11" width="106" height="101">
<path d="M20.1335 11.7877H125.866V111.118H20.1335V11.7877Z" fill="white"/>
</mask>
<g mask="url(#mask42_2669_24029)">
<path d="M57.4194 81.9278C57.2591 81.5328 57.0874 81.1377 56.9271 80.7426C56.8664 80.5982 56.8058 80.4548 56.744 80.3114L47.6772 75.0322V77.5448L58.1257 83.6289C57.8876 83.0656 57.6529 82.4945 57.4194 81.9278Z" fill="#FFE4A1"/>
</g>
<mask id="mask43_2669_24029" style="mask-type:luminance" maskUnits="userSpaceOnUse" x="20" y="11" width="106" height="101">
<path d="M20.1335 11.7877H125.866V111.118H20.1335V11.7877Z" fill="white"/>
</mask>
<g mask="url(#mask43_2669_24029)">
<path d="M72.7367 89.6237L67.9629 86.8436C67.5542 87.4565 67.1421 88.0739 66.7151 88.6293L72.7356 92.1352L72.7367 89.6237Z" fill="#FFE4A1"/>
</g>
<mask id="mask44_2669_24029" style="mask-type:luminance" maskUnits="userSpaceOnUse" x="20" y="11" width="106" height="101">
<path d="M20.1335 11.7877H125.866V111.118H20.1335V11.7877Z" fill="white"/>
</mask>
<g mask="url(#mask44_2669_24029)">
<path d="M47.1964 74.7523V69.981L42.7329 67.3815C41.3202 67.693 39.9006 68.4583 38.4799 69.6762L47.1964 74.7523Z" fill="#FFD877"/>
</g>
<mask id="mask45_2669_24029" style="mask-type:luminance" maskUnits="userSpaceOnUse" x="20" y="11" width="106" height="101">
<path d="M20.1335 11.7877H125.866V111.118H20.1335V11.7877Z" fill="white"/>
</mask>
<g mask="url(#mask45_2669_24029)">
<path d="M77.7864 92.5642C77.2575 91.5449 77.0777 90.5922 76.8923 89.6034C76.7366 88.758 76.5717 87.8798 76.1814 86.8583L73.2175 85.1324V89.9037L77.7864 92.5642Z" fill="#FFD877"/>
</g>
<mask id="mask46_2669_24029" style="mask-type:luminance" maskUnits="userSpaceOnUse" x="20" y="11" width="106" height="101">
<path d="M20.1335 11.7877H125.866V111.118H20.1335V11.7877Z" fill="white"/>
</mask>
<g mask="url(#mask46_2669_24029)">
<path d="M72.7367 84.8524L70.5376 83.5713C69.6515 84.3106 68.8135 85.5658 67.9973 86.7916L67.9629 86.8424L72.7367 89.6215V84.8524Z" fill="#FFD877"/>
</g>
<mask id="mask47_2669_24029" style="mask-type:luminance" maskUnits="userSpaceOnUse" x="20" y="11" width="106" height="101">
<path d="M20.1335 11.7877H125.866V111.118H20.1335V11.7877Z" fill="white"/>
</mask>
<g mask="url(#mask47_2669_24029)">
<path d="M28.605 63.9241C28.3463 63.7198 28.0738 63.5629 27.7922 63.4534L28.6164 63.9331L28.605 63.9241Z" fill="#FFD877"/>
</g>
<mask id="mask48_2669_24029" style="mask-type:luminance" maskUnits="userSpaceOnUse" x="20" y="11" width="106" height="101">
<path d="M20.1335 11.7877H125.866V111.118H20.1335V11.7877Z" fill="white"/>
</mask>
<g mask="url(#mask48_2669_24029)">
<path d="M95.6211 102.949V98.1775L86.3895 92.8023C85.8984 94.1444 85.4267 95.1343 84.8944 95.5633C84.5876 95.8127 84.2625 96.0046 83.9236 96.1378L95.6211 102.949Z" fill="#FFD877"/>
</g>
<mask id="mask49_2669_24029" style="mask-type:luminance" maskUnits="userSpaceOnUse" x="20" y="11" width="106" height="101">
<path d="M20.1335 11.7877H125.866V111.118H20.1335V11.7877Z" fill="white"/>
</mask>
<g mask="url(#mask49_2669_24029)">
<path d="M52.9398 73.3255L47.6772 70.2609V75.0322L56.744 80.3114C55.6049 77.6566 54.3078 75.285 52.9398 73.3255Z" fill="#FFD877"/>
</g>
<mask id="mask50_2669_24029" style="mask-type:luminance" maskUnits="userSpaceOnUse" x="20" y="11" width="106" height="101">
<path d="M20.1335 11.7877H125.866V111.118H20.1335V11.7877Z" fill="white"/>
</mask>
<g mask="url(#mask50_2669_24029)">
<path d="M96.1133 98.4642V103.235L96.9559 103.726C96.9674 103.72 96.9788 103.713 96.9903 103.706C97.0269 103.684 97.0647 103.661 97.1013 103.638C97.1208 103.627 97.1391 103.615 97.1585 103.603C97.1894 103.584 97.2215 103.565 97.2524 103.546C97.2707 103.535 97.289 103.523 97.3062 103.512C97.352 103.484 97.3989 103.454 97.4447 103.425C97.4573 103.417 97.4699 103.409 97.4825 103.401C97.5191 103.379 97.5546 103.356 97.5913 103.333C97.6096 103.321 97.6268 103.31 97.6451 103.299C97.6771 103.278 97.7103 103.257 97.7424 103.237C97.7596 103.226 97.7756 103.215 97.7928 103.205C97.8397 103.176 97.8855 103.145 97.9324 103.116C97.9439 103.109 97.9542 103.101 97.9656 103.094C98.0034 103.07 98.0412 103.046 98.079 103.021C98.095 103.011 98.111 103.001 98.127 102.989C98.1625 102.967 98.198 102.943 98.2324 102.921C98.2461 102.911 98.261 102.902 98.2747 102.893C98.3216 102.863 98.3697 102.831 98.4167 102.801C98.427 102.794 98.4361 102.787 98.4464 102.782C98.4854 102.756 98.5254 102.73 98.5643 102.704C98.5781 102.695 98.5918 102.686 98.6056 102.677C98.6445 102.651 98.6845 102.625 98.7235 102.599C98.7326 102.592 98.7418 102.586 98.7509 102.581C98.8002 102.548 98.8483 102.515 98.8963 102.483C98.9055 102.477 98.9135 102.471 98.9227 102.465C98.9627 102.437 99.0039 102.409 99.044 102.382C99.0566 102.374 99.0681 102.365 99.0806 102.357C99.1219 102.329 99.1631 102.301 99.2043 102.273C99.2112 102.268 99.2192 102.262 99.226 102.258C99.2753 102.224 99.3245 102.19 99.3737 102.156C99.3794 102.152 99.3863 102.148 99.392 102.144C99.4344 102.115 99.4779 102.085 99.5202 102.055C99.5305 102.048 99.5409 102.04 99.5523 102.033C99.5981 102.002 99.6439 101.969 99.6897 101.937C99.6874 101.939 99.692 101.936 99.6897 101.937C99.74 101.902 99.7973 101.862 99.8465 101.827C99.8522 101.822 99.8591 101.818 99.8648 101.814C99.9083 101.784 99.9518 101.752 99.9953 101.722C100.003 101.716 100.01 101.71 100.018 101.705C100.118 101.634 100.216 101.563 100.315 101.492C100.319 101.488 100.324 101.485 100.33 101.481C100.374 101.449 100.419 101.416 100.464 101.384C100.47 101.38 100.477 101.374 100.483 101.37C100.573 101.304 100.663 101.238 100.752 101.171L96.1133 98.4642Z" fill="#FFD877"/>
</g>
<mask id="mask51_2669_24029" style="mask-type:luminance" maskUnits="userSpaceOnUse" x="20" y="11" width="106" height="101">
<path d="M20.1335 11.7877H125.866V111.118H20.1335V11.7877Z" fill="white"/>
</mask>
<g mask="url(#mask51_2669_24029)">
<path d="M75.9536 86.3074C75.2896 84.8061 74.2249 83.7903 73.2518 83.2936L73.2175 83.2744V85.1324L76.1814 86.8582C76.1127 86.6788 76.0371 86.4959 75.9536 86.3074Z" fill="#FFCF59"/>
</g>
<mask id="mask52_2669_24029" style="mask-type:luminance" maskUnits="userSpaceOnUse" x="20" y="11" width="106" height="101">
<path d="M20.1335 11.7877H125.866V111.118H20.1335V11.7877Z" fill="white"/>
</mask>
<g mask="url(#mask52_2669_24029)">
<path d="M72.7367 84.8525V83.0679C72.3268 82.9302 71.9617 82.8895 71.672 82.955C71.2839 83.0442 70.9073 83.2632 70.5375 83.5724L72.7367 84.8525Z" fill="#FFCF59"/>
</g>
<mask id="mask53_2669_24029" style="mask-type:luminance" maskUnits="userSpaceOnUse" x="20" y="11" width="106" height="101">
<path d="M20.1335 11.7877H125.866V111.118H20.1335V11.7877Z" fill="white"/>
</mask>
<g mask="url(#mask53_2669_24029)">
<path d="M95.6211 98.1775V93.9966L87.5526 89.2986C87.4896 89.4917 87.4278 89.6836 87.3671 89.8732C87.0203 90.9557 86.7009 91.9501 86.3895 92.8012L95.6211 98.1775Z" fill="#FFCF59"/>
</g>
<mask id="mask54_2669_24029" style="mask-type:luminance" maskUnits="userSpaceOnUse" x="20" y="11" width="106" height="101">
<path d="M20.1335 11.7877H125.866V111.118H20.1335V11.7877Z" fill="white"/>
</mask>
<g mask="url(#mask54_2669_24029)">
<path d="M47.1964 67.9153C45.7219 67.229 44.2314 67.0507 42.7328 67.3825L47.1964 69.9821V67.9153Z" fill="#FFCF59"/>
</g>
<mask id="mask55_2669_24029" style="mask-type:luminance" maskUnits="userSpaceOnUse" x="20" y="11" width="106" height="101">
<path d="M20.1335 11.7877H125.866V111.118H20.1335V11.7877Z" fill="white"/>
</mask>
<g mask="url(#mask55_2669_24029)">
<path d="M48.6846 68.789C48.3641 68.5632 48.0321 68.3601 47.7115 68.1795L47.6772 68.1603V70.2609L52.9398 73.3255C51.5638 71.3535 50.1156 69.7981 48.6846 68.789Z" fill="#FFCF59"/>
</g>
<mask id="mask56_2669_24029" style="mask-type:luminance" maskUnits="userSpaceOnUse" x="20" y="11" width="106" height="101">
<path d="M20.1335 11.7877H125.866V111.118H20.1335V11.7877Z" fill="white"/>
</mask>
<g mask="url(#mask56_2669_24029)">
<path d="M96.1133 94.2832V98.4641L100.754 101.166L100.773 101.153C100.826 101.113 100.88 101.073 100.934 101.032C100.956 101.016 100.978 100.999 100.999 100.984C101.038 100.954 101.077 100.925 101.116 100.895C101.14 100.877 101.164 100.859 101.188 100.84C101.223 100.814 101.258 100.787 101.292 100.761C101.318 100.742 101.342 100.724 101.367 100.705C101.403 100.677 101.441 100.648 101.478 100.619C101.498 100.603 101.519 100.587 101.541 100.57C101.596 100.528 101.652 100.485 101.707 100.442C101.726 100.426 101.746 100.411 101.765 100.395C101.804 100.365 101.842 100.336 101.881 100.305C101.904 100.287 101.928 100.269 101.951 100.25C101.986 100.222 102.022 100.193 102.058 100.165C102.081 100.147 102.103 100.13 102.126 100.112C102.167 100.079 102.207 100.047 102.248 100.014L102.299 99.9744C102.355 99.9293 102.411 99.8841 102.467 99.839L102.514 99.8006C102.555 99.7667 102.596 99.7329 102.638 99.699C102.658 99.6821 102.679 99.6651 102.699 99.6482C102.737 99.6166 102.776 99.585 102.814 99.5545C102.833 99.5387 102.853 99.5229 102.872 99.5071C102.921 99.4665 102.971 99.4247 103.02 99.3841L103.04 99.3671C103.098 99.3197 103.155 99.2712 103.211 99.2238L103.255 99.1877C103.297 99.1516 103.339 99.1154 103.382 99.0804L103.437 99.0342C103.477 98.9992 103.518 98.9653 103.558 98.9303L103.607 98.8886C103.663 98.84 103.719 98.7926 103.774 98.7441L96.1133 94.2832Z" fill="#FFCF59"/>
</g>
<mask id="mask57_2669_24029" style="mask-type:luminance" maskUnits="userSpaceOnUse" x="20" y="11" width="106" height="101">
<path d="M20.1335 11.7877H125.866V111.118H20.1335V11.7877Z" fill="white"/>
</mask>
<g mask="url(#mask57_2669_24029)">
<path d="M95.6211 90.7096L88.4753 86.549C88.1479 87.4734 87.8434 88.4035 87.5526 89.2986L95.6211 93.9965V90.7096Z" fill="#FFCA47"/>
</g>
<mask id="mask58_2669_24029" style="mask-type:luminance" maskUnits="userSpaceOnUse" x="20" y="11" width="106" height="101">
<path d="M20.1335 11.7877H125.866V111.118H20.1335V11.7877Z" fill="white"/>
</mask>
<g mask="url(#mask58_2669_24029)">
<path d="M103.703 96.3534C103.654 96.0091 103.606 95.6682 103.557 95.3307L96.1133 90.9963V94.2832L103.773 98.743L103.794 98.7249C103.83 98.6933 103.866 98.6617 103.903 98.6301L103.951 98.5872L103.999 98.5454C103.901 97.8095 103.803 97.0769 103.703 96.3534Z" fill="#FFCA47"/>
</g>
<mask id="mask59_2669_24029" style="mask-type:luminance" maskUnits="userSpaceOnUse" x="20" y="11" width="106" height="101">
<path d="M20.1335 11.7877H125.866V111.118H20.1335V11.7877Z" fill="white"/>
</mask>
<g mask="url(#mask59_2669_24029)">
<path d="M103.557 95.3307C103.446 94.5609 103.334 93.8058 103.222 93.0687C102.547 88.7681 101.792 85.1335 100.921 83.3388C100.784 83.0566 100.647 82.7857 100.498 82.526C100.246 82.0745 99.9827 81.6569 99.708 81.2731C98.6548 79.8057 97.4299 78.7673 96.182 78.3271C96.1591 78.3158 96.1362 78.3158 96.1362 78.3158L96.1133 78.3079V90.9963L103.557 95.3307Z" fill="#FFC840"/>
</g>
<mask id="mask60_2669_24029" style="mask-type:luminance" maskUnits="userSpaceOnUse" x="20" y="11" width="106" height="101">
<path d="M20.1335 11.7877H125.866V111.118H20.1335V11.7877Z" fill="white"/>
</mask>
<g mask="url(#mask60_2669_24029)">
<path d="M95.6211 90.7095V78.1735C94.8323 78.0144 94.0893 78.1295 93.4345 78.485C91.2308 79.703 89.6991 83.0881 88.4753 86.5489L95.6211 90.7095Z" fill="#FFC840"/>
</g>
<mask id="mask61_2669_24029" style="mask-type:luminance" maskUnits="userSpaceOnUse" x="20" y="11" width="106" height="101">
<path d="M20.1335 11.7877H125.866V111.118H20.1335V11.7877Z" fill="white"/>
</mask>
<g mask="url(#mask61_2669_24029)">
<path d="M104.375 94.1184C104.309 93.6714 104.241 93.2301 104.173 92.7978C103.486 88.4746 102.707 84.8174 101.803 82.9437C101.551 82.4312 101.281 81.9425 100.992 81.4831C100.887 81.3149 100.78 81.1512 100.67 80.9909C100.521 80.7765 100.372 80.562 100.212 80.3588C99.4905 79.4332 98.7006 78.677 97.8763 78.1239C97.407 77.8191 96.9261 77.5708 96.4453 77.4015C96.1477 77.2999 95.85 77.2209 95.5524 77.1757C94.6137 77.029 93.7207 77.187 92.9194 77.6272C92.3813 77.9275 91.8879 78.3304 91.4266 78.8158C91.1415 79.116 90.8691 79.4479 90.6069 79.8057C90.5153 79.9299 90.4352 80.054 90.3436 80.1895C88.8748 82.3917 87.793 85.4258 86.8737 88.2319C86.7329 88.662 86.5955 89.0864 86.4627 89.5018C85.6728 91.9399 84.9402 94.2539 84.2647 94.7957C83.6695 95.281 83.0284 95.4729 82.3301 95.3601C81.3341 95.202 80.2809 94.4345 79.2849 93.1364C78.3118 91.8609 78.1058 90.7547 77.8654 89.4792C77.6708 88.4746 77.4532 87.3346 76.8465 85.9688C75.5987 83.1469 73.0229 81.6456 71.3973 82.0181C71.292 82.0418 71.1889 82.0734 71.0871 82.1095C69.5748 82.6479 68.3647 84.463 67.1959 86.2284C65.5589 88.6891 64.3912 90.2468 63.0975 89.5582C61.1514 88.5198 59.6517 84.8626 58.3238 81.6343C58.1521 81.228 57.9918 80.8329 57.8315 80.4491C56.7737 77.9128 55.5671 75.6124 54.2815 73.6461C52.6731 71.1854 50.9399 69.2495 49.2227 68.0327C45.8238 65.6375 42.2509 65.6951 38.7845 68.1908C38.2808 68.5531 37.7805 68.9673 37.2825 69.4324C36.5498 70.1209 35.4623 71.0352 34.4091 70.8659C33.8367 70.7756 33.3215 70.3806 32.8178 69.6469C32.3484 68.9583 32.005 68.1005 31.6501 67.1862C31.6387 67.1636 31.6272 67.1297 31.6158 67.1071C31.5013 66.8024 31.3754 66.4976 31.2494 66.1929C31.0548 65.7301 30.8373 65.2786 30.5969 64.8609C30.3107 64.3755 29.9902 63.9466 29.6238 63.5967C29.3262 63.3032 29.0171 63.0662 28.6966 62.8743C28.0097 62.4679 27.2656 62.276 26.51 62.3325C25.4911 62.4115 24.7585 63.1791 24.2433 64.2514C24.1907 64.3597 24.1391 64.4704 24.0911 64.5844C23.9823 64.8395 23.8839 65.107 23.7969 65.3801C23.4649 66.4299 23.2702 67.6038 23.1558 68.631C23.1214 68.9922 23.0871 69.3421 23.0642 69.6581C23.0069 70.5273 22.9955 71.182 22.9955 71.4077C22.9955 71.6786 23.213 71.9044 23.4763 71.927C23.648 71.9383 23.7969 71.8592 23.8884 71.7351C23.9342 71.6673 23.9686 71.577 23.9686 71.4867C23.9686 70.9788 24.0029 70.2338 24.0831 69.3985C24.1059 69.0712 24.1517 68.7213 24.1975 68.3601C24.3029 67.5429 24.4608 66.6974 24.6783 65.9366C24.7676 65.6251 24.8661 65.3282 24.976 65.0528C25.0573 64.8496 25.1443 64.6566 25.2393 64.4783C25.3709 64.2299 25.5152 64.011 25.6743 63.8337C25.9491 63.5064 26.2811 63.3145 26.6588 63.2806C26.8763 63.2581 27.1053 63.2694 27.3228 63.3145C27.4808 63.3461 27.6376 63.3924 27.7922 63.4533C28.0738 63.5628 28.3463 63.7197 28.605 63.924C28.6084 63.9274 28.613 63.9297 28.6164 63.9331C29.0469 64.2706 29.4327 64.7187 29.7612 65.2786C29.9787 65.651 30.1619 66.0574 30.3451 66.4863C30.471 66.7911 30.5969 67.0959 30.7114 67.4006C30.7228 67.4232 30.7228 67.4345 30.7343 67.4571C30.7721 67.553 30.8098 67.649 30.8488 67.7449C31.1808 68.5791 31.5345 69.4234 32.0165 70.1322C32.6804 71.1143 33.4589 71.6673 34.3175 71.8028C35.1761 71.9303 35.9935 71.6064 36.6987 71.1515C37.1783 70.8422 37.6053 70.472 37.9579 70.1435C38.1319 69.981 38.3059 69.8252 38.48 69.6762C39.9006 68.4583 41.3202 67.6941 42.7329 67.3814C44.2314 67.0507 45.7219 67.2291 47.1964 67.9142V69.9798V74.7511V77.2637V87.5434V92.4479L47.6772 92.493V88.6496V77.5437V75.0311V70.2598V68.1592C47.6887 68.1659 47.7001 68.1716 47.7116 68.1783C48.0321 68.3589 48.3641 68.5621 48.6846 68.7879C50.1156 69.797 51.5638 71.3524 52.9398 73.3244C54.3078 75.2839 55.6049 77.6554 56.744 80.3103C56.8058 80.4536 56.8665 80.597 56.9271 80.7415C57.0874 81.1365 57.2591 81.5316 57.4194 81.9267C57.6529 82.4933 57.8876 83.0645 58.1257 83.6277C58.9397 85.5489 59.8028 87.3842 60.8332 88.7184C61.3723 89.4171 61.9573 89.977 62.6053 90.3405V92.7955V101.094L63.0861 101.128V93.9017V90.5628C63.0975 90.5662 63.109 90.5707 63.1205 90.5741C64.4931 91.0222 65.6459 90.0221 66.7162 88.6304C67.1421 88.075 67.5554 87.4576 67.9641 86.8447C67.9755 86.8278 67.987 86.8108 67.9984 86.7939C68.8146 85.5669 69.6526 84.3129 70.5387 83.5735C70.9085 83.2654 71.2862 83.0464 71.6732 82.9561C71.9628 82.8906 72.328 82.9313 72.7378 83.069V84.8547V89.626V92.1386V104.187L73.2187 104.232V92.4163V89.9036V85.1324V83.2744C73.2301 83.2801 73.2415 83.2868 73.253 83.2936C74.2261 83.7903 75.2907 84.8061 75.9547 86.3074C76.0383 86.4959 76.1138 86.6788 76.1825 86.8582C76.574 87.8798 76.7377 88.7579 76.8934 89.6034C77.0789 90.5922 77.2586 91.5448 77.7875 92.5641C77.9776 92.9287 78.2122 93.3023 78.5076 93.6895C79.6753 95.2133 80.9574 96.1276 82.2282 96.3195C82.8166 96.4098 83.389 96.3466 83.9247 96.1378C84.2647 96.0046 84.5899 95.8138 84.8955 95.5632C85.4279 95.1354 85.8995 94.1455 86.3906 92.8023C86.702 91.9501 87.0214 90.9568 87.3683 89.8743C87.4301 89.6846 87.4919 89.4928 87.5537 89.2997C87.8434 88.4046 88.149 87.4745 88.4764 86.5501C89.7002 83.0893 91.2319 79.7041 93.4357 78.4862C94.0905 78.1306 94.8335 78.0155 95.6222 78.1747V90.7096V93.9965V98.1775V102.949V104.512C95.6337 104.505 95.6463 104.497 95.6589 104.491C95.6978 104.468 95.7367 104.447 95.7756 104.424C95.7917 104.415 95.8077 104.406 95.8226 104.397C95.8638 104.373 95.9038 104.35 95.9451 104.327C95.9542 104.321 95.9634 104.317 95.9725 104.311C96.0195 104.284 96.0676 104.256 96.1145 104.229V103.235V98.4642V94.2832V90.9963V78.3079C96.1225 78.3101 96.1294 78.3135 96.1374 78.3158C96.1488 78.3158 96.1603 78.3158 96.1832 78.327C97.431 78.7673 98.6559 79.8057 99.7091 81.2731C99.9839 81.6569 100.247 82.0745 100.499 82.526C100.648 82.7857 100.785 83.0566 100.923 83.3387C101.793 85.1335 102.548 88.7681 103.224 93.0687C103.335 93.8058 103.447 94.5609 103.558 95.3307C103.607 95.6682 103.655 96.0091 103.704 96.3534C103.804 97.0769 103.903 97.8095 104 98.5466C104.012 98.5353 104.025 98.5251 104.036 98.5138C104.052 98.4991 104.069 98.4856 104.085 98.4709C104.115 98.4438 104.146 98.4168 104.176 98.3897C104.189 98.3784 104.202 98.3671 104.215 98.3558C104.257 98.3185 104.299 98.2813 104.34 98.2441C104.336 98.2463 104.343 98.2418 104.34 98.2441C104.349 98.2361 104.367 98.2203 104.376 98.2113C104.411 98.1808 104.445 98.1504 104.479 98.1188C104.496 98.1041 104.512 98.0894 104.528 98.0747C104.566 98.0397 104.605 98.0036 104.644 97.9686C104.651 97.963 104.657 97.9573 104.664 97.9517C104.708 97.9111 104.753 97.8704 104.797 97.8298C104.813 97.8151 104.828 97.8016 104.844 97.7869C104.857 97.7745 104.871 97.7609 104.885 97.7485C104.823 97.2925 104.761 96.8376 104.698 96.3872C104.592 95.6197 104.485 94.8611 104.375 94.1184Z" fill="white"/>
</g>
</g>
</svg>
