<svg width="146" height="139" viewBox="0 0 146 139" fill="none" xmlns="http://www.w3.org/2000/svg">
<path d="M23.2758 127.121L20.1663 122.825C19.707 122.886 19.2849 122.916 18.9001 122.916H15.1762V127.121H14.2266V114.269H18.9001C20.5387 114.269 21.8234 114.652 22.7544 115.417C23.6854 116.182 24.1509 117.243 24.1509 118.602C24.1509 119.618 23.8871 120.472 23.3596 121.163C22.832 121.855 22.0779 122.341 21.0973 122.623L24.3557 127.121H23.2758ZM18.9001 122.09C20.2904 122.09 21.3517 121.787 22.0841 121.181C22.8165 120.576 23.1827 119.716 23.1827 118.602C23.1827 117.488 22.8165 116.628 22.0841 116.023C21.3517 115.417 20.2904 115.114 18.9001 115.114H15.1762V122.09H18.9001ZM29.699 126.359C28.6687 125.79 27.8588 125.009 27.2692 124.018C26.6795 123.027 26.3847 121.919 26.3847 120.695C26.3847 119.471 26.6795 118.363 27.2692 117.372C27.8588 116.381 28.6687 115.6 29.699 115.031C30.7293 114.462 31.8838 114.177 33.1623 114.177C34.4409 114.177 35.5953 114.459 36.6256 115.022C37.6559 115.585 38.4658 116.362 39.0555 117.354C39.6451 118.345 39.9399 119.459 39.9399 120.695C39.9399 121.931 39.6451 123.045 39.0555 124.036C38.4658 125.028 37.6559 125.805 36.6256 126.368C35.5953 126.931 34.4409 127.212 33.1623 127.212C31.8838 127.212 30.7293 126.928 29.699 126.359ZM36.1229 125.615C37.0042 125.126 37.6993 124.449 38.2083 123.587C38.7172 122.724 38.9717 121.76 38.9717 120.695C38.9717 119.63 38.7172 118.666 38.2083 117.803C37.6993 116.941 37.0042 116.264 36.1229 115.775C35.2415 115.285 34.2547 115.04 33.1623 115.04C32.07 115.04 31.08 115.285 30.1925 115.775C29.3049 116.264 28.6067 116.941 28.0977 117.803C27.5888 118.666 27.3343 119.63 27.3343 120.695C27.3343 121.76 27.5888 122.724 28.0977 123.587C28.6067 124.449 29.3049 125.126 30.1925 125.615C31.08 126.105 32.07 126.35 33.1623 126.35C34.2547 126.35 35.2415 126.105 36.1229 125.615ZM53.1136 121.576C53.6039 122.127 53.8491 122.843 53.8491 123.724C53.8491 124.813 53.4457 125.652 52.6388 126.239C51.832 126.827 50.6341 127.121 49.0452 127.121H43.2358V114.269H48.6728C50.0879 114.269 51.1896 114.554 51.9778 115.123C52.7661 115.692 53.1602 116.503 53.1602 117.556C53.1602 118.29 52.9647 118.908 52.5737 119.41C52.1826 119.912 51.652 120.273 50.9817 120.493C51.9127 120.664 52.6233 121.025 53.1136 121.576ZM44.1855 115.077V120.199H48.6356C49.7776 120.199 50.6558 119.982 51.2703 119.548C51.8847 119.113 52.192 118.474 52.192 117.629C52.192 116.797 51.8847 116.163 51.2703 115.729C50.6558 115.294 49.7776 115.077 48.6356 115.077H44.1855ZM51.922 125.661C52.5737 125.227 52.8995 124.556 52.8995 123.651C52.8995 122.745 52.5737 122.078 51.922 121.65C51.2703 121.221 50.3114 121.007 49.0452 121.007H44.1855V126.313H49.0452C50.3114 126.313 51.2703 126.096 51.922 125.661ZM59.305 126.359C58.2747 125.79 57.4647 125.009 56.8751 124.018C56.2855 123.027 55.9906 121.919 55.9906 120.695C55.9906 119.471 56.2855 118.363 56.8751 117.372C57.4647 116.381 58.2747 115.6 59.305 115.031C60.3353 114.462 61.4897 114.177 62.7682 114.177C64.0468 114.177 65.2012 114.459 66.2315 115.022C67.2618 115.585 68.0718 116.362 68.6614 117.354C69.251 118.345 69.5458 119.459 69.5458 120.695C69.5458 121.931 69.251 123.045 68.6614 124.036C68.0718 125.028 67.2618 125.805 66.2315 126.368C65.2012 126.931 64.0468 127.212 62.7682 127.212C61.4897 127.212 60.3353 126.928 59.305 126.359ZM65.7288 125.615C66.6101 125.126 67.3053 124.449 67.8142 123.587C68.3231 122.724 68.5776 121.76 68.5776 120.695C68.5776 119.63 68.3231 118.666 67.8142 117.803C67.3053 116.941 66.6101 116.264 65.7288 115.775C64.8474 115.285 63.8606 115.04 62.7682 115.04C61.6759 115.04 60.6859 115.285 59.7984 115.775C58.9108 116.264 58.2126 116.941 57.7037 117.803C57.1947 118.666 56.9403 119.63 56.9403 120.695C56.9403 121.76 57.1947 122.724 57.7037 123.587C58.2126 124.449 58.9108 125.126 59.7984 125.615C60.6859 126.105 61.6759 126.35 62.7682 126.35C63.8606 126.35 64.8474 126.105 65.7288 125.615ZM73.54 126.726C72.6773 126.402 72.0039 125.982 71.5198 125.468L71.948 124.771C72.4073 125.248 73.0249 125.637 73.8007 125.936C74.5765 126.236 75.3927 126.386 76.2492 126.386C77.4905 126.386 78.4277 126.154 79.0608 125.689C79.6938 125.224 80.0104 124.618 80.0104 123.871C80.0104 123.296 79.8428 122.837 79.5076 122.494C79.1725 122.151 78.7566 121.888 78.2601 121.705C77.7636 121.521 77.0933 121.331 76.2492 121.136C75.2934 120.903 74.5269 120.677 73.9496 120.456C73.3724 120.236 72.8821 119.896 72.4787 119.437C72.0753 118.978 71.8735 118.363 71.8735 117.592C71.8735 116.968 72.0411 116.396 72.3763 115.876C72.7114 115.356 73.2235 114.942 73.9124 114.636C74.6013 114.33 75.4609 114.177 76.4912 114.177C77.2112 114.177 77.9188 114.282 78.6139 114.49C79.309 114.698 79.9111 114.979 80.42 115.334L80.0662 116.087C79.5449 115.732 78.9708 115.463 78.3439 115.279C77.717 115.095 77.0995 115.004 76.4912 115.004C75.2872 115.004 74.3748 115.242 73.7541 115.72C73.1335 116.197 72.8231 116.815 72.8231 117.574C72.8231 118.149 72.9907 118.608 73.3259 118.951C73.661 119.294 74.0769 119.557 74.5734 119.74C75.0699 119.924 75.7465 120.12 76.603 120.328C77.5588 120.56 78.3222 120.787 78.8932 121.007C79.4642 121.227 79.9514 121.561 80.3548 122.008C80.7583 122.454 80.96 123.057 80.96 123.816C80.96 124.44 80.7893 125.009 80.4479 125.523C80.1066 126.037 79.5821 126.447 78.8746 126.753C78.167 127.059 77.2981 127.212 76.2678 127.212C75.312 127.212 74.4027 127.05 73.54 126.726ZM86.49 115.114H81.7979V114.269H92.1318V115.114H87.4396V127.121H86.49V115.114ZM96.3581 126.359C95.3278 125.79 94.5179 125.009 93.9282 124.018C93.3386 123.027 93.0438 121.919 93.0438 120.695C93.0438 119.471 93.3386 118.363 93.9282 117.372C94.5179 116.381 95.3278 115.6 96.3581 115.031C97.3884 114.462 98.5428 114.177 99.8214 114.177C101.1 114.177 102.254 114.459 103.285 115.022C104.315 115.585 105.125 116.362 105.715 117.354C106.304 118.345 106.599 119.459 106.599 120.695C106.599 121.931 106.304 123.045 105.715 124.036C105.125 125.028 104.315 125.805 103.285 126.368C102.254 126.931 101.1 127.212 99.8214 127.212C98.5428 127.212 97.3884 126.928 96.3581 126.359ZM102.782 125.615C103.663 125.126 104.358 124.449 104.867 123.587C105.376 122.724 105.631 121.76 105.631 120.695C105.631 119.63 105.376 118.666 104.867 117.803C104.358 116.941 103.663 116.264 102.782 115.775C101.901 115.285 100.914 115.04 99.8214 115.04C98.729 115.04 97.7391 115.285 96.8515 115.775C95.964 116.264 95.2657 116.941 94.7568 117.803C94.2479 118.666 93.9934 119.63 93.9934 120.695C93.9934 121.76 94.2479 122.724 94.7568 123.587C95.2657 124.449 95.964 125.126 96.8515 125.615C97.7391 126.105 98.729 126.35 99.8214 126.35C100.914 126.35 101.901 126.105 102.782 125.615ZM111.952 126.368C110.928 125.805 110.121 125.028 109.532 124.036C108.942 123.045 108.647 121.931 108.647 120.695C108.647 119.459 108.942 118.345 109.532 117.354C110.121 116.362 110.928 115.585 111.952 115.022C112.976 114.459 114.128 114.177 115.406 114.177C116.35 114.177 117.219 114.327 118.013 114.627C118.808 114.927 119.484 115.371 120.043 115.958L119.447 116.564C118.404 115.548 117.07 115.04 115.444 115.04C114.351 115.04 113.358 115.285 112.464 115.775C111.571 116.264 110.869 116.941 110.36 117.803C109.851 118.666 109.597 119.63 109.597 120.695C109.597 121.76 109.851 122.724 110.36 123.587C110.869 124.449 111.571 125.126 112.464 125.615C113.358 126.105 114.351 126.35 115.444 126.35C117.057 126.35 118.392 125.835 119.447 124.807L120.043 125.413C119.484 126.001 118.804 126.447 118.004 126.753C117.203 127.059 116.337 127.212 115.406 127.212C114.128 127.212 112.976 126.931 111.952 126.368ZM127.1 120.787L124.176 123.743V127.121H123.227V114.269H124.176V122.531L132.313 114.269H133.468L127.733 120.107L133.859 127.121H132.704L127.1 120.787Z" fill="#1513A0"/>
<mask id="mask0_2654_7370" style="mask-type:luminance" maskUnits="userSpaceOnUse" x="20" y="11" width="106" height="101">
<path d="M20.1335 11.7877H125.867V111.118H20.1335V11.7877Z" fill="white"/>
</mask>
<g mask="url(#mask0_2654_7370)">
<mask id="mask1_2654_7370" style="mask-type:luminance" maskUnits="userSpaceOnUse" x="20" y="11" width="106" height="101">
<path d="M20.1335 11.7877H125.867V111.118H20.1335V11.7877Z" fill="white"/>
</mask>
<g mask="url(#mask1_2654_7370)">
<path d="M24.1976 68.3601C24.1518 68.7213 24.106 69.0712 24.0831 69.3986C24.0029 70.2339 23.9686 70.9788 23.9686 71.4868C23.9686 71.5771 23.9343 71.6674 23.8885 71.7351C23.7969 71.8593 23.6481 71.9383 23.4763 71.927C23.213 71.9044 22.9955 71.6787 22.9955 71.4078C22.9955 71.182 23.007 70.5273 23.0642 69.6582C23.0871 69.3421 23.1215 68.9922 23.1558 68.631C23.2703 67.6038 23.4649 66.4299 23.7969 65.3802C23.8839 65.107 23.9823 64.8395 24.0911 64.5844L20.4186 56.1356C20.2297 57.8818 20.1335 59.6551 20.1335 61.451C20.1335 77.5144 27.8678 91.7966 39.8652 100.874L24.6784 65.9367C24.4609 66.6974 24.3029 67.5429 24.1976 68.3601Z" fill="#6FA6EB"/>
</g>
<mask id="mask2_2654_7370" style="mask-type:luminance" maskUnits="userSpaceOnUse" x="20" y="11" width="106" height="101">
<path d="M20.1335 11.7877H125.867V111.118H20.1335V11.7877Z" fill="white"/>
</mask>
<g mask="url(#mask2_2654_7370)">
<path d="M47.6772 92.493L47.1964 92.4479V87.5434L41.2148 73.7804L36.6998 71.1515C35.9946 71.6064 35.1772 71.9304 34.3186 71.8028C33.46 71.6674 32.6815 71.1143 32.0176 70.1322C31.5356 69.4234 31.1819 68.5791 30.8499 67.7449L25.2404 64.4783C25.1465 64.6566 25.0584 64.8496 24.9771 65.0528C24.8672 65.3282 24.7687 65.6251 24.6794 65.9366L39.8663 100.876C44.806 104.615 50.4693 107.471 56.6123 109.205L47.6783 88.6507L47.6772 92.493Z" fill="#819AE2"/>
</g>
<mask id="mask3_2654_7370" style="mask-type:luminance" maskUnits="userSpaceOnUse" x="20" y="11" width="106" height="101">
<path d="M20.1335 11.7877H125.867V111.118H20.1335V11.7877Z" fill="white"/>
</mask>
<g mask="url(#mask3_2654_7370)">
<path d="M24.2435 64.2514C24.7586 63.1791 25.4913 62.4115 26.5101 62.3325C27.2657 62.2761 28.0098 62.468 28.6967 62.8743C29.0172 63.0662 29.3263 63.3032 29.624 63.5967C29.9903 63.9466 30.3108 64.3756 30.597 64.8609C30.8375 65.2786 31.055 65.7301 31.2496 66.1929C31.3755 66.4976 31.5014 66.8024 31.6159 67.1072C31.6274 67.1297 31.6388 67.1636 31.6503 67.1862C32.0051 68.1005 32.3486 68.9583 32.8179 69.6469C33.3216 70.3806 33.8368 70.7757 34.4092 70.866C35.4624 71.0353 36.55 70.121 37.2826 69.4324C37.7806 68.9674 38.282 68.5531 38.7846 68.1908L25.8542 38.4423C22.991 43.8332 21.1021 49.8078 20.4187 56.1367L24.0912 64.5855C24.1393 64.4704 24.1908 64.3598 24.2435 64.2514Z" fill="#819AE2"/>
</g>
<mask id="mask4_2654_7370" style="mask-type:luminance" maskUnits="userSpaceOnUse" x="20" y="11" width="106" height="101">
<path d="M20.1335 11.7877H125.867V111.118H20.1335V11.7877Z" fill="white"/>
</mask>
<g mask="url(#mask4_2654_7370)">
<path d="M47.1964 87.5434V77.2638L41.2148 73.7804L47.1964 87.5434Z" fill="#938ED8"/>
</g>
<mask id="mask5_2654_7370" style="mask-type:luminance" maskUnits="userSpaceOnUse" x="20" y="11" width="106" height="101">
<path d="M20.1335 11.7877H125.867V111.118H20.1335V11.7877Z" fill="white"/>
</mask>
<g mask="url(#mask5_2654_7370)">
<path d="M49.2226 68.0328C50.941 69.2496 52.673 71.1854 54.2815 73.6461L47.6978 58.4981L44.1856 60.5265L34.6151 54.544L34.0427 34.5311L36.6311 33.0366L34.0736 27.1535C30.8281 30.5037 28.0531 34.3008 25.854 38.4423L38.7844 68.1908C42.2509 65.6951 45.8238 65.6375 49.2226 68.0328Z" fill="#938ED8"/>
</g>
<mask id="mask6_2654_7370" style="mask-type:luminance" maskUnits="userSpaceOnUse" x="20" y="11" width="106" height="101">
<path d="M20.1335 11.7877H125.867V111.118H20.1335V11.7877Z" fill="white"/>
</mask>
<g mask="url(#mask6_2654_7370)">
<path d="M63.0861 101.128L62.6053 101.094V92.7955L60.8332 88.7184C59.8029 87.3854 58.9409 85.5489 58.1258 83.6277L47.6772 77.5437V88.6496L56.6112 109.204C61.0244 110.451 65.6848 111.118 70.5044 111.118H70.5696L63.0861 93.9017V101.128Z" fill="#938ED8"/>
</g>
<mask id="mask7_2654_7370" style="mask-type:luminance" maskUnits="userSpaceOnUse" x="20" y="11" width="106" height="101">
<path d="M20.1335 11.7877H125.867V111.118H20.1335V11.7877Z" fill="white"/>
</mask>
<g mask="url(#mask7_2654_7370)">
<path d="M39.263 31.5173L48.8335 37.4997L49.4058 57.5127L47.6978 58.4981L54.2815 73.6461C55.5671 75.6124 56.7737 77.9128 57.8315 80.4491C57.9918 80.8329 58.1521 81.228 58.3238 81.6343C59.6517 84.8626 61.1514 88.5198 63.0976 89.5582C64.3912 90.2468 65.5589 88.6891 67.1959 86.2284C68.3647 84.463 69.5736 82.6468 71.0871 82.1095L66.1084 70.6549L63.1319 72.3672L53.5614 66.3848L52.9856 40.4661L43.7998 19.3334C40.2326 21.5368 36.9665 24.1679 34.0725 27.1546L36.63 33.0377L39.263 31.5173Z" fill="#A583CE"/>
</g>
<mask id="mask8_2654_7370" style="mask-type:luminance" maskUnits="userSpaceOnUse" x="20" y="11" width="106" height="101">
<path d="M20.1335 11.7877H125.867V111.118H20.1335V11.7877Z" fill="white"/>
</mask>
<g mask="url(#mask8_2654_7370)">
<path d="M62.6054 90.3404C61.9574 89.977 61.3724 89.4171 60.8333 88.7184L62.6054 92.7955V90.3404Z" fill="#A583CE"/>
</g>
<mask id="mask9_2654_7370" style="mask-type:luminance" maskUnits="userSpaceOnUse" x="20" y="11" width="106" height="101">
<path d="M20.1335 11.7877H125.867V111.118H20.1335V11.7877Z" fill="white"/>
</mask>
<g mask="url(#mask9_2654_7370)">
<path d="M73.2176 92.4162V104.232L72.7368 104.187V92.1363L66.7163 88.6304C65.6471 90.0233 64.4931 91.0233 63.1205 90.5741L63.0862 90.5628V93.9006L70.5697 111.118C74.8684 111.112 79.0411 110.576 83.0239 109.571L76.3635 94.2471L73.2176 92.4162Z" fill="#A583CE"/>
</g>
<mask id="mask10_2654_7370" style="mask-type:luminance" maskUnits="userSpaceOnUse" x="20" y="11" width="106" height="101">
<path d="M20.1335 11.7877H125.867V111.118H20.1335V11.7877Z" fill="white"/>
</mask>
<g mask="url(#mask10_2654_7370)">
<path d="M52.7029 27.702L57.9346 24.6995L59.7548 25.8385L54.7269 14.272C50.8564 15.5295 47.193 17.2373 43.801 19.3334L52.9868 40.4661L52.7029 27.702Z" fill="#B777C4"/>
</g>
<mask id="mask11_2654_7370" style="mask-type:luminance" maskUnits="userSpaceOnUse" x="20" y="11" width="106" height="101">
<path d="M20.1335 11.7877H125.867V111.118H20.1335V11.7877Z" fill="white"/>
</mask>
<g mask="url(#mask11_2654_7370)">
<path d="M82.0668 84.2192L72.5078 78.2368L72.0304 54.0801L67.797 44.3412L68.3522 69.3647L66.1084 70.6549L71.0871 82.1084C71.189 82.0723 71.2932 82.0418 71.3973 82.017C73.0229 81.6445 75.5987 83.1458 76.8465 85.9677C77.4533 87.3335 77.6708 88.4735 77.8654 89.4781C78.1058 90.7536 78.3119 91.8598 79.285 93.1353C80.2809 94.4334 81.3341 95.201 82.3301 95.359C83.0284 95.4719 83.6695 95.28 84.2648 94.7946C84.9402 94.2528 85.6729 91.9388 86.4628 89.5007C86.5967 89.0853 86.7341 88.6609 86.8738 88.2308L84.5166 82.8083L82.0668 84.2192Z" fill="#B777C4"/>
</g>
<mask id="mask12_2654_7370" style="mask-type:luminance" maskUnits="userSpaceOnUse" x="20" y="11" width="106" height="101">
<path d="M20.1335 11.7877H125.867V111.118H20.1335V11.7877Z" fill="white"/>
</mask>
<g mask="url(#mask12_2654_7370)">
<path d="M76.3623 94.2471L83.0227 109.571C86.9802 108.573 90.7512 107.113 94.2714 105.251L93.936 104.48L76.3623 94.2471Z" fill="#B777C4"/>
</g>
<mask id="mask13_2654_7370" style="mask-type:luminance" maskUnits="userSpaceOnUse" x="20" y="11" width="106" height="101">
<path d="M20.1335 11.7877H125.867V111.118H20.1335V11.7877Z" fill="white"/>
</mask>
<g mask="url(#mask13_2654_7370)">
<path d="M86.8382 57.9507L87.2984 81.2054L84.5166 82.8083L86.8737 88.232C87.7919 85.4259 88.8737 82.3918 90.3436 80.1896C90.4352 80.0541 90.5153 79.9299 90.6069 79.8058C90.8691 79.448 91.1415 79.1161 91.4266 78.8159L91.4117 68.473L86.8382 57.9507Z" fill="#C96BBA"/>
</g>
<mask id="mask14_2654_7370" style="mask-type:luminance" maskUnits="userSpaceOnUse" x="20" y="11" width="106" height="101">
<path d="M20.1335 11.7877H125.867V111.118H20.1335V11.7877Z" fill="white"/>
</mask>
<g mask="url(#mask14_2654_7370)">
<path d="M67.4935 30.682L67.7969 44.3411L72.0303 54.0801L71.8552 45.243L77.0754 42.2292L81.0982 44.7441L66.8295 11.9163C62.6316 12.2143 58.5767 13.0202 54.7268 14.2709L59.7547 25.8373L67.4935 30.682Z" fill="#C96BBA"/>
</g>
<mask id="mask15_2654_7370" style="mask-type:luminance" maskUnits="userSpaceOnUse" x="20" y="11" width="106" height="101">
<path d="M20.1335 11.7877H125.867V111.118H20.1335V11.7877Z" fill="white"/>
</mask>
<g mask="url(#mask15_2654_7370)">
<path d="M94.2724 105.251C94.4453 105.16 94.617 105.069 94.7876 104.975L93.937 104.479L94.2724 105.251Z" fill="#C96BBA"/>
</g>
<mask id="mask16_2654_7370" style="mask-type:luminance" maskUnits="userSpaceOnUse" x="20" y="11" width="106" height="101">
<path d="M20.1335 11.7877H125.867V111.118H20.1335V11.7877Z" fill="white"/>
</mask>
<g mask="url(#mask16_2654_7370)">
<path d="M103.606 98.8886C103.669 98.8344 103.732 98.7803 103.795 98.7261L103.774 98.7441C103.717 98.7927 103.661 98.8401 103.606 98.8886Z" fill="#C96BBA"/>
</g>
<mask id="mask17_2654_7370" style="mask-type:luminance" maskUnits="userSpaceOnUse" x="20" y="11" width="106" height="101">
<path d="M20.1335 11.7877H125.867V111.118H20.1335V11.7877Z" fill="white"/>
</mask>
<g mask="url(#mask17_2654_7370)">
<path d="M96.9446 103.733L96.989 103.705L96.9557 103.725L96.9446 103.733Z" fill="#C96BBA"/>
</g>
<mask id="mask18_2654_7370" style="mask-type:luminance" maskUnits="userSpaceOnUse" x="20" y="11" width="106" height="101">
<path d="M20.1335 11.7877H125.867V111.118H20.1335V11.7877Z" fill="white"/>
</mask>
<g mask="url(#mask18_2654_7370)">
<path d="M106.205 72.3063L106.233 93.0461L104.375 94.1185C104.485 94.8601 104.593 95.6197 104.699 96.3873C104.762 96.8377 104.824 97.2926 104.886 97.7486C106.917 95.8782 108.79 93.8431 110.485 91.6668L110.572 82.3511L106.205 72.3063Z" fill="#DB5FB1"/>
</g>
<mask id="mask19_2654_7370" style="mask-type:luminance" maskUnits="userSpaceOnUse" x="20" y="11" width="106" height="101">
<path d="M20.1335 11.7877H125.867V111.118H20.1335V11.7877Z" fill="white"/>
</mask>
<g mask="url(#mask19_2654_7370)">
<path d="M86.6459 48.2117L86.8382 57.9506L91.4116 68.4741L91.3693 38.1781L80.3071 12.7279C77.1361 12.1116 73.8585 11.7877 70.5031 11.7877C69.2668 11.7877 68.0418 11.8317 66.8284 11.9175L81.0971 44.7441L86.6459 48.2117Z" fill="#DB5FB1"/>
</g>
<mask id="mask20_2654_7370" style="mask-type:luminance" maskUnits="userSpaceOnUse" x="20" y="11" width="106" height="101">
<path d="M20.1335 11.7877H125.867V111.118H20.1335V11.7877Z" fill="white"/>
</mask>
<g mask="url(#mask20_2654_7370)">
<path d="M106.205 72.3063L110.571 82.3511L110.846 52.7855L106.162 42.0092L106.205 72.3063Z" fill="#ED53A7"/>
</g>
<mask id="mask21_2654_7370" style="mask-type:luminance" maskUnits="userSpaceOnUse" x="20" y="11" width="106" height="101">
<path d="M20.1335 11.7877H125.867V111.118H20.1335V11.7877Z" fill="white"/>
</mask>
<g mask="url(#mask21_2654_7370)">
<path d="M91.3625 32.5783L96.5942 29.5645L102.307 33.1393L95.9886 18.602C91.2102 15.8331 85.927 13.8183 80.3083 12.7256L91.3705 38.1758L91.3625 32.5783Z" fill="#ED53A7"/>
</g>
<mask id="mask22_2654_7370" style="mask-type:luminance" maskUnits="userSpaceOnUse" x="20" y="11" width="106" height="101">
<path d="M20.1335 11.7877H125.867V111.118H20.1335V11.7877Z" fill="white"/>
</mask>
<g mask="url(#mask22_2654_7370)">
<path d="M106.153 35.547L106.162 42.0091L110.846 52.7843L111.039 31.9631C106.997 26.5711 101.875 22.0131 95.9885 18.602L102.307 33.1393L106.153 35.547Z" fill="#FF479D"/>
</g>
<mask id="mask23_2654_7370" style="mask-type:luminance" maskUnits="userSpaceOnUse" x="20" y="11" width="106" height="101">
<path d="M20.1335 11.7877H125.867V111.118H20.1335V11.7877Z" fill="white"/>
</mask>
<g mask="url(#mask23_2654_7370)">
<path d="M48.8335 37.4998L43.6133 40.5135L44.1857 60.5265L47.6979 58.4981L49.4059 57.5127L48.8335 37.4998Z" fill="#0DB7CE"/>
</g>
<mask id="mask24_2654_7370" style="mask-type:luminance" maskUnits="userSpaceOnUse" x="20" y="11" width="106" height="101">
<path d="M20.1335 11.7877H125.867V111.118H20.1335V11.7877Z" fill="white"/>
</mask>
<g mask="url(#mask24_2654_7370)">
<path d="M67.7971 44.3412L67.4937 30.682L62.2734 33.6845L63.132 72.3672L66.1085 70.6549L68.3523 69.3647L67.7971 44.3412Z" fill="#0DB7CE"/>
</g>
<mask id="mask25_2654_7370" style="mask-type:luminance" maskUnits="userSpaceOnUse" x="20" y="11" width="106" height="101">
<path d="M20.1335 11.7877H125.867V111.118H20.1335V11.7877Z" fill="white"/>
</mask>
<g mask="url(#mask25_2654_7370)">
<path d="M81.4143 51.2255L82.0668 84.2192L84.5167 82.8082L87.2985 81.2054L86.8383 57.9506L86.646 48.2117L81.4143 51.2255Z" fill="#0DB7CE"/>
</g>
<mask id="mask26_2654_7370" style="mask-type:luminance" maskUnits="userSpaceOnUse" x="20" y="11" width="106" height="101">
<path d="M20.1335 11.7877H125.867V111.118H20.1335V11.7877Z" fill="white"/>
</mask>
<g mask="url(#mask26_2654_7370)">
<path d="M106.153 35.547L100.933 38.5608L100.992 81.4831C101.281 81.9425 101.551 82.4313 101.803 82.9437C102.707 84.8175 103.486 88.4747 104.173 92.7978C104.241 93.2313 104.309 93.6715 104.375 94.1185L106.233 93.0461L106.205 72.3063L106.162 42.0103L106.153 35.547Z" fill="#0DB7CE"/>
</g>
<mask id="mask27_2654_7370" style="mask-type:luminance" maskUnits="userSpaceOnUse" x="20" y="11" width="106" height="101">
<path d="M20.1335 11.7877H125.867V111.118H20.1335V11.7877Z" fill="white"/>
</mask>
<g mask="url(#mask27_2654_7370)">
<path d="M43.6132 40.5135L48.8334 37.4997L39.263 31.5173L36.6311 33.0366L34.0427 34.5311L43.6132 40.5135Z" fill="#219CE2"/>
</g>
<mask id="mask28_2654_7370" style="mask-type:luminance" maskUnits="userSpaceOnUse" x="20" y="11" width="106" height="101">
<path d="M20.1335 11.7877H125.867V111.118H20.1335V11.7877Z" fill="white"/>
</mask>
<g mask="url(#mask28_2654_7370)">
<path d="M67.4936 30.682L59.7548 25.8385L57.9346 24.6996L52.7029 27.7021L62.2733 33.6845L67.4936 30.682Z" fill="#219CE2"/>
</g>
<mask id="mask29_2654_7370" style="mask-type:luminance" maskUnits="userSpaceOnUse" x="20" y="11" width="106" height="101">
<path d="M20.1335 11.7877H125.867V111.118H20.1335V11.7877Z" fill="white"/>
</mask>
<g mask="url(#mask29_2654_7370)">
<path d="M86.6459 48.2117L81.0983 44.7441L77.0755 42.2292L71.8552 45.243L81.4142 51.2255L86.6459 48.2117Z" fill="#219CE2"/>
</g>
<mask id="mask30_2654_7370" style="mask-type:luminance" maskUnits="userSpaceOnUse" x="20" y="11" width="106" height="101">
<path d="M20.1335 11.7877H125.867V111.118H20.1335V11.7877Z" fill="white"/>
</mask>
<g mask="url(#mask30_2654_7370)">
<path d="M100.933 38.5607L91.3625 32.5783L91.3706 38.177L91.4129 68.4729L91.4278 78.8158C91.8892 78.3304 92.3826 77.9275 92.9206 77.6272C93.722 77.187 94.6149 77.029 95.5536 77.1757C95.8513 77.2209 96.1489 77.2999 96.4466 77.4015C96.9274 77.5708 97.4082 77.8191 97.8776 78.1239C98.7018 78.677 99.4917 79.4332 100.213 80.3588C100.373 80.562 100.522 80.7765 100.671 80.9909C100.781 81.1512 100.888 81.3149 100.994 81.4831L100.933 38.5607Z" fill="#05E2C6"/>
</g>
<mask id="mask31_2654_7370" style="mask-type:luminance" maskUnits="userSpaceOnUse" x="20" y="11" width="106" height="101">
<path d="M20.1335 11.7877H125.867V111.118H20.1335V11.7877Z" fill="white"/>
</mask>
<g mask="url(#mask31_2654_7370)">
<path d="M106.153 35.547L102.307 33.1393L96.5942 29.5645L91.3625 32.5783L100.933 38.5607L106.153 35.547Z" fill="#219CE2"/>
</g>
<mask id="mask32_2654_7370" style="mask-type:luminance" maskUnits="userSpaceOnUse" x="20" y="11" width="106" height="101">
<path d="M20.1335 11.7877H125.867V111.118H20.1335V11.7877Z" fill="white"/>
</mask>
<g mask="url(#mask32_2654_7370)">
<path d="M43.6132 40.5136L34.0427 34.5311L34.6151 54.5441L44.1856 60.5265L43.6132 40.5136Z" fill="#05E2C6"/>
</g>
<mask id="mask33_2654_7370" style="mask-type:luminance" maskUnits="userSpaceOnUse" x="20" y="11" width="106" height="101">
<path d="M20.1335 11.7877H125.867V111.118H20.1335V11.7877Z" fill="white"/>
</mask>
<g mask="url(#mask33_2654_7370)">
<path d="M62.2733 33.6845L52.7029 27.7021L52.9856 40.4661L53.5615 66.3848L63.1319 72.3672L62.2733 33.6845Z" fill="#05E2C6"/>
</g>
<mask id="mask34_2654_7370" style="mask-type:luminance" maskUnits="userSpaceOnUse" x="20" y="11" width="106" height="101">
<path d="M20.1335 11.7877H125.867V111.118H20.1335V11.7877Z" fill="white"/>
</mask>
<g mask="url(#mask34_2654_7370)">
<path d="M82.0668 84.2192L81.4142 51.2255L71.8552 45.243L72.0304 54.0801L72.5078 78.2368L82.0668 84.2192Z" fill="#05E2C6"/>
</g>
<mask id="mask35_2654_7370" style="mask-type:luminance" maskUnits="userSpaceOnUse" x="20" y="11" width="106" height="101">
<path d="M20.1335 11.7877H125.867V111.118H20.1335V11.7877Z" fill="white"/>
</mask>
<g mask="url(#mask35_2654_7370)">
<path d="M125.866 31.0319L116.307 25.0495L111.076 28.052L120.646 34.0344L125.866 31.0319Z" fill="#219CE2"/>
</g>
<mask id="mask36_2654_7370" style="mask-type:luminance" maskUnits="userSpaceOnUse" x="20" y="11" width="106" height="101">
<path d="M20.1335 11.7877H125.867V111.118H20.1335V11.7877Z" fill="white"/>
</mask>
<g mask="url(#mask36_2654_7370)">
<path d="M120.646 34.0344L119.959 107.901L125.18 104.898L125.867 31.0319L120.646 34.0344Z" fill="#0DB7CE"/>
</g>
<mask id="mask37_2654_7370" style="mask-type:luminance" maskUnits="userSpaceOnUse" x="20" y="11" width="106" height="101">
<path d="M20.1335 11.7877H125.867V111.118H20.1335V11.7877Z" fill="white"/>
</mask>
<g mask="url(#mask37_2654_7370)">
<path d="M120.646 34.0344L111.076 28.052L111.039 31.9643L110.846 52.7854L110.571 82.3511L110.484 91.6668L110.389 101.918L119.959 107.901L120.646 34.0344Z" fill="#05E2C6"/>
</g>
<mask id="mask38_2654_7370" style="mask-type:luminance" maskUnits="userSpaceOnUse" x="20" y="11" width="106" height="101">
<path d="M20.1335 11.7877H125.867V111.118H20.1335V11.7877Z" fill="white"/>
</mask>
<g mask="url(#mask38_2654_7370)">
<path d="M30.7343 67.4571C30.7228 67.4345 30.7228 67.4233 30.7114 67.4007C30.5969 67.0959 30.471 66.7911 30.345 66.4864C30.1619 66.0575 29.9787 65.6511 29.7612 65.2786C29.4326 64.7187 29.0468 64.2706 28.6164 63.9331L27.7921 63.4534C27.6376 63.3936 27.4808 63.3473 27.3228 63.3146C27.1053 63.2694 26.8763 63.2581 26.6588 63.2807C26.281 63.3146 25.949 63.5064 25.6743 63.8338C25.514 64.011 25.3698 64.2311 25.2393 64.4783L30.8487 67.745C30.8098 67.649 30.772 67.5531 30.7343 67.4571Z" fill="#FFE4A1"/>
</g>
<mask id="mask39_2654_7370" style="mask-type:luminance" maskUnits="userSpaceOnUse" x="20" y="11" width="106" height="101">
<path d="M20.1335 11.7877H125.867V111.118H20.1335V11.7877Z" fill="white"/>
</mask>
<g mask="url(#mask39_2654_7370)">
<path d="M47.1965 77.2637V74.7511L38.48 69.675C38.306 69.824 38.132 69.9798 37.958 70.1424C37.6054 70.4708 37.1784 70.8411 36.6987 71.1503L41.2138 73.7792L47.1965 77.2637Z" fill="#FFE4A1"/>
</g>
<mask id="mask40_2654_7370" style="mask-type:luminance" maskUnits="userSpaceOnUse" x="20" y="11" width="106" height="101">
<path d="M20.1335 11.7877H125.867V111.118H20.1335V11.7877Z" fill="white"/>
</mask>
<g mask="url(#mask40_2654_7370)">
<path d="M96.1133 103.235V104.229C96.119 104.225 96.1236 104.222 96.1293 104.22C96.1282 104.221 96.1305 104.219 96.1293 104.22C96.1808 104.189 96.2369 104.157 96.2884 104.126C96.293 104.124 96.2976 104.12 96.301 104.118C96.3514 104.088 96.4029 104.058 96.4533 104.028C96.4613 104.023 96.4693 104.018 96.4785 104.013C96.5254 103.985 96.5712 103.958 96.6181 103.93C96.6227 103.926 96.6284 103.924 96.633 103.921C96.68 103.892 96.7269 103.864 96.7738 103.836C96.7887 103.827 96.8036 103.818 96.8185 103.809C96.8608 103.784 96.902 103.758 96.9444 103.732C96.9478 103.73 96.9524 103.728 96.9558 103.725L96.1133 103.235Z" fill="#FFE4A1"/>
</g>
<mask id="mask41_2654_7370" style="mask-type:luminance" maskUnits="userSpaceOnUse" x="20" y="11" width="106" height="101">
<path d="M20.1335 11.7877H125.867V111.118H20.1335V11.7877Z" fill="white"/>
</mask>
<g mask="url(#mask41_2654_7370)">
<path d="M95.6211 102.949L83.9236 96.1378C83.3879 96.3478 82.8166 96.4099 82.227 96.3196C80.9563 96.1277 79.6742 95.2134 78.5065 93.6896C78.2111 93.3024 77.9764 92.9288 77.7864 92.5642L73.2175 89.9037V92.4163L76.3623 94.2472L93.936 104.481L94.7866 104.976C94.8404 104.947 94.8942 104.917 94.9468 104.888C94.9434 104.89 94.9503 104.886 94.9468 104.888C94.9995 104.859 95.0636 104.824 95.1163 104.794C95.122 104.791 95.1277 104.788 95.1346 104.784C95.1815 104.758 95.2284 104.732 95.2754 104.706C95.2834 104.702 95.2914 104.697 95.2983 104.694C95.3464 104.667 95.3944 104.641 95.4414 104.614C95.4551 104.606 95.4677 104.599 95.4814 104.591C95.5272 104.565 95.5742 104.539 95.62 104.512L95.6211 102.949Z" fill="#FFE4A1"/>
</g>
<mask id="mask42_2654_7370" style="mask-type:luminance" maskUnits="userSpaceOnUse" x="20" y="11" width="106" height="101">
<path d="M20.1335 11.7877H125.867V111.118H20.1335V11.7877Z" fill="white"/>
</mask>
<g mask="url(#mask42_2654_7370)">
<path d="M57.4194 81.9278C57.2592 81.5328 57.0874 81.1377 56.9272 80.7426C56.8665 80.5982 56.8058 80.4548 56.744 80.3114L47.6772 75.0322V77.5448L58.1258 83.6289C57.8876 83.0656 57.653 82.4945 57.4194 81.9278Z" fill="#FFE4A1"/>
</g>
<mask id="mask43_2654_7370" style="mask-type:luminance" maskUnits="userSpaceOnUse" x="20" y="11" width="106" height="101">
<path d="M20.1335 11.7877H125.867V111.118H20.1335V11.7877Z" fill="white"/>
</mask>
<g mask="url(#mask43_2654_7370)">
<path d="M72.7367 89.6236L67.9629 86.8435C67.5542 87.4564 67.1421 88.0739 66.7151 88.6292L72.7356 92.1351L72.7367 89.6236Z" fill="#FFE4A1"/>
</g>
<mask id="mask44_2654_7370" style="mask-type:luminance" maskUnits="userSpaceOnUse" x="20" y="11" width="106" height="101">
<path d="M20.1335 11.7877H125.867V111.118H20.1335V11.7877Z" fill="white"/>
</mask>
<g mask="url(#mask44_2654_7370)">
<path d="M47.1964 74.7523V69.981L42.7329 67.3815C41.3202 67.693 39.9007 68.4583 38.48 69.6762L47.1964 74.7523Z" fill="#FFD877"/>
</g>
<mask id="mask45_2654_7370" style="mask-type:luminance" maskUnits="userSpaceOnUse" x="20" y="11" width="106" height="101">
<path d="M20.1335 11.7877H125.867V111.118H20.1335V11.7877Z" fill="white"/>
</mask>
<g mask="url(#mask45_2654_7370)">
<path d="M77.7864 92.5641C77.2575 91.5448 77.0778 90.5921 76.8923 89.6034C76.7366 88.7579 76.5718 87.8797 76.1814 86.8582L73.2175 85.1323V89.9036L77.7864 92.5641Z" fill="#FFD877"/>
</g>
<mask id="mask46_2654_7370" style="mask-type:luminance" maskUnits="userSpaceOnUse" x="20" y="11" width="106" height="101">
<path d="M20.1335 11.7877H125.867V111.118H20.1335V11.7877Z" fill="white"/>
</mask>
<g mask="url(#mask46_2654_7370)">
<path d="M72.7367 84.8524L70.5375 83.5713C69.6515 84.3106 68.8135 85.5658 67.9972 86.7916L67.9629 86.8424L72.7367 89.6215V84.8524Z" fill="#FFD877"/>
</g>
<mask id="mask47_2654_7370" style="mask-type:luminance" maskUnits="userSpaceOnUse" x="20" y="11" width="106" height="101">
<path d="M20.1335 11.7877H125.867V111.118H20.1335V11.7877Z" fill="white"/>
</mask>
<g mask="url(#mask47_2654_7370)">
<path d="M28.605 63.9241C28.3463 63.7198 28.0739 63.5629 27.7922 63.4534L28.6165 63.9331L28.605 63.9241Z" fill="#FFD877"/>
</g>
<mask id="mask48_2654_7370" style="mask-type:luminance" maskUnits="userSpaceOnUse" x="20" y="11" width="106" height="101">
<path d="M20.1335 11.7877H125.867V111.118H20.1335V11.7877Z" fill="white"/>
</mask>
<g mask="url(#mask48_2654_7370)">
<path d="M95.6211 102.949V98.1774L86.3895 92.8022C85.8984 94.1443 85.4267 95.1343 84.8944 95.5632C84.5876 95.8127 84.2624 96.0045 83.9236 96.1377L95.6211 102.949Z" fill="#FFD877"/>
</g>
<mask id="mask49_2654_7370" style="mask-type:luminance" maskUnits="userSpaceOnUse" x="20" y="11" width="106" height="101">
<path d="M20.1335 11.7877H125.867V111.118H20.1335V11.7877Z" fill="white"/>
</mask>
<g mask="url(#mask49_2654_7370)">
<path d="M52.9399 73.3255L47.6772 70.2609V75.0321L56.744 80.3114C55.6049 77.6565 54.3079 75.285 52.9399 73.3255Z" fill="#FFD877"/>
</g>
<mask id="mask50_2654_7370" style="mask-type:luminance" maskUnits="userSpaceOnUse" x="20" y="11" width="106" height="101">
<path d="M20.1335 11.7877H125.867V111.118H20.1335V11.7877Z" fill="white"/>
</mask>
<g mask="url(#mask50_2654_7370)">
<path d="M96.1133 98.4641V103.235L96.9558 103.726C96.9673 103.72 96.9787 103.713 96.9902 103.706C97.0268 103.684 97.0646 103.661 97.1012 103.638C97.1207 103.627 97.139 103.615 97.1585 103.603C97.1894 103.584 97.2214 103.565 97.2524 103.546C97.2707 103.535 97.289 103.523 97.3062 103.512C97.3519 103.484 97.3989 103.454 97.4447 103.425C97.4573 103.417 97.4699 103.409 97.4825 103.401C97.5191 103.379 97.5546 103.356 97.5912 103.332C97.6095 103.321 97.6267 103.31 97.645 103.299C97.6771 103.278 97.7103 103.257 97.7423 103.237C97.7595 103.226 97.7755 103.215 97.7927 103.205C97.8396 103.176 97.8854 103.145 97.9324 103.116C97.9438 103.109 97.9541 103.101 97.9656 103.094C98.0033 103.069 98.0411 103.046 98.0789 103.021C98.0949 103.011 98.1109 103.001 98.127 102.989C98.1625 102.967 98.198 102.943 98.2323 102.92C98.246 102.911 98.2609 102.902 98.2747 102.893C98.3216 102.863 98.3697 102.831 98.4166 102.801C98.4269 102.794 98.4361 102.787 98.4464 102.782C98.4853 102.756 98.5254 102.73 98.5643 102.704C98.578 102.695 98.5918 102.686 98.6055 102.677C98.6444 102.651 98.6845 102.625 98.7234 102.599C98.7326 102.592 98.7417 102.586 98.7509 102.581C98.8001 102.548 98.8482 102.515 98.8963 102.483C98.9054 102.477 98.9134 102.471 98.9226 102.464C98.9627 102.437 99.0039 102.409 99.044 102.382C99.0565 102.374 99.068 102.365 99.0806 102.357C99.1218 102.329 99.163 102.301 99.2042 102.273C99.2111 102.268 99.2191 102.262 99.226 102.258C99.2752 102.224 99.3244 102.19 99.3736 102.156C99.3794 102.152 99.3862 102.148 99.392 102.144C99.4343 102.115 99.4778 102.085 99.5202 102.055C99.5305 102.048 99.5408 102.04 99.5522 102.033C99.598 102.002 99.6438 101.969 99.6896 101.937C99.6873 101.938 99.6919 101.936 99.6896 101.937C99.74 101.902 99.7972 101.862 99.8464 101.827C99.8522 101.822 99.859 101.818 99.8648 101.814C99.9083 101.784 99.9518 101.752 99.9953 101.722C100.003 101.716 100.01 101.71 100.018 101.705C100.118 101.634 100.216 101.563 100.315 101.491C100.319 101.488 100.324 101.485 100.33 101.481C100.374 101.449 100.419 101.416 100.463 101.384C100.47 101.38 100.477 101.374 100.483 101.37C100.573 101.304 100.663 101.237 100.752 101.171L96.1133 98.4641Z" fill="#FFD877"/>
</g>
<mask id="mask51_2654_7370" style="mask-type:luminance" maskUnits="userSpaceOnUse" x="20" y="11" width="106" height="101">
<path d="M20.1335 11.7877H125.867V111.118H20.1335V11.7877Z" fill="white"/>
</mask>
<g mask="url(#mask51_2654_7370)">
<path d="M75.9536 86.3074C75.2896 84.8061 74.225 83.7903 73.2519 83.2936L73.2175 83.2744V85.1324L76.1814 86.8582C76.1127 86.6788 76.0372 86.4959 75.9536 86.3074Z" fill="#FFCF59"/>
</g>
<mask id="mask52_2654_7370" style="mask-type:luminance" maskUnits="userSpaceOnUse" x="20" y="11" width="106" height="101">
<path d="M20.1335 11.7877H125.867V111.118H20.1335V11.7877Z" fill="white"/>
</mask>
<g mask="url(#mask52_2654_7370)">
<path d="M72.7367 84.8525V83.0679C72.3269 82.9302 71.9617 82.8895 71.6721 82.955C71.284 83.0442 70.9074 83.2632 70.5376 83.5724L72.7367 84.8525Z" fill="#FFCF59"/>
</g>
<mask id="mask53_2654_7370" style="mask-type:luminance" maskUnits="userSpaceOnUse" x="20" y="11" width="106" height="101">
<path d="M20.1335 11.7877H125.867V111.118H20.1335V11.7877Z" fill="white"/>
</mask>
<g mask="url(#mask53_2654_7370)">
<path d="M95.621 98.1774V93.9965L87.5525 89.2986C87.4895 89.4916 87.4277 89.6835 87.3671 89.8731C87.0202 90.9556 86.7008 91.95 86.3894 92.8011L95.621 98.1774Z" fill="#FFCF59"/>
</g>
<mask id="mask54_2654_7370" style="mask-type:luminance" maskUnits="userSpaceOnUse" x="20" y="11" width="106" height="101">
<path d="M20.1335 11.7877H125.867V111.118H20.1335V11.7877Z" fill="white"/>
</mask>
<g mask="url(#mask54_2654_7370)">
<path d="M47.1965 67.9153C45.722 67.229 44.2314 67.0507 42.7329 67.3825L47.1965 69.9821V67.9153Z" fill="#FFCF59"/>
</g>
<mask id="mask55_2654_7370" style="mask-type:luminance" maskUnits="userSpaceOnUse" x="20" y="11" width="106" height="101">
<path d="M20.1335 11.7877H125.867V111.118H20.1335V11.7877Z" fill="white"/>
</mask>
<g mask="url(#mask55_2654_7370)">
<path d="M48.6847 68.789C48.3641 68.5632 48.0321 68.3601 47.7116 68.1795L47.6772 68.1603V70.2609L52.9399 73.3255C51.5638 71.3535 50.1157 69.7981 48.6847 68.789Z" fill="#FFCF59"/>
</g>
<mask id="mask56_2654_7370" style="mask-type:luminance" maskUnits="userSpaceOnUse" x="20" y="11" width="106" height="101">
<path d="M20.1335 11.7877H125.867V111.118H20.1335V11.7877Z" fill="white"/>
</mask>
<g mask="url(#mask56_2654_7370)">
<path d="M96.1133 94.2832V98.4641L100.754 101.166L100.773 101.153C100.826 101.113 100.88 101.073 100.934 101.032C100.956 101.016 100.978 100.999 100.999 100.984C101.038 100.954 101.077 100.925 101.116 100.895C101.14 100.877 101.164 100.859 101.188 100.84C101.222 100.814 101.258 100.787 101.292 100.761C101.318 100.742 101.342 100.724 101.367 100.705C101.403 100.677 101.441 100.648 101.478 100.619C101.498 100.603 101.519 100.587 101.541 100.57C101.596 100.528 101.652 100.485 101.707 100.442C101.726 100.426 101.746 100.411 101.765 100.395C101.804 100.365 101.842 100.336 101.881 100.305C101.904 100.287 101.928 100.269 101.951 100.25C101.986 100.222 102.022 100.193 102.058 100.165C102.081 100.147 102.103 100.13 102.126 100.112C102.167 100.079 102.207 100.047 102.248 100.014L102.299 99.9744C102.355 99.9293 102.411 99.8841 102.467 99.839L102.514 99.8006C102.555 99.7667 102.596 99.7329 102.637 99.699C102.658 99.6821 102.679 99.6651 102.699 99.6482C102.737 99.6166 102.776 99.585 102.814 99.5545C102.833 99.5387 102.853 99.5229 102.872 99.5071C102.921 99.4665 102.971 99.4247 103.02 99.3841L103.04 99.3671C103.098 99.3197 103.155 99.2712 103.211 99.2238L103.254 99.1877C103.297 99.1516 103.339 99.1154 103.382 99.0804L103.437 99.0342C103.477 98.9992 103.518 98.9653 103.558 98.9303L103.607 98.8886C103.663 98.84 103.719 98.7926 103.774 98.7441L96.1133 94.2832Z" fill="#FFCF59"/>
</g>
<mask id="mask57_2654_7370" style="mask-type:luminance" maskUnits="userSpaceOnUse" x="20" y="11" width="106" height="101">
<path d="M20.1335 11.7877H125.867V111.118H20.1335V11.7877Z" fill="white"/>
</mask>
<g mask="url(#mask57_2654_7370)">
<path d="M95.6212 90.7096L88.4754 86.549C88.148 87.4734 87.8435 88.4035 87.5527 89.2986L95.6212 93.9965V90.7096Z" fill="#FFCA47"/>
</g>
<mask id="mask58_2654_7370" style="mask-type:luminance" maskUnits="userSpaceOnUse" x="20" y="11" width="106" height="101">
<path d="M20.1335 11.7877H125.867V111.118H20.1335V11.7877Z" fill="white"/>
</mask>
<g mask="url(#mask58_2654_7370)">
<path d="M103.703 96.3534C103.654 96.0092 103.606 95.6683 103.557 95.3308L96.1133 90.9963V94.2833L103.773 98.743L103.794 98.725C103.83 98.6934 103.866 98.6618 103.902 98.6302L103.951 98.5873L103.999 98.5455C103.901 97.8095 103.803 97.077 103.703 96.3534Z" fill="#FFCA47"/>
</g>
<mask id="mask59_2654_7370" style="mask-type:luminance" maskUnits="userSpaceOnUse" x="20" y="11" width="106" height="101">
<path d="M20.1335 11.7877H125.867V111.118H20.1335V11.7877Z" fill="white"/>
</mask>
<g mask="url(#mask59_2654_7370)">
<path d="M103.557 95.3307C103.446 94.5609 103.333 93.8058 103.222 93.0687C102.547 88.7681 101.791 85.1335 100.921 83.3388C100.784 83.0566 100.647 82.7857 100.498 82.526C100.246 82.0745 99.9827 81.6569 99.7079 81.2731C98.6547 79.8057 97.4298 78.7673 96.182 78.3271C96.1591 78.3158 96.1362 78.3158 96.1362 78.3158L96.1133 78.3079V90.9963L103.557 95.3307Z" fill="#FFC840"/>
</g>
<mask id="mask60_2654_7370" style="mask-type:luminance" maskUnits="userSpaceOnUse" x="20" y="11" width="106" height="101">
<path d="M20.1335 11.7877H125.867V111.118H20.1335V11.7877Z" fill="white"/>
</mask>
<g mask="url(#mask60_2654_7370)">
<path d="M95.6211 90.7095V78.1735C94.8324 78.0144 94.0894 78.1295 93.4346 78.485C91.2309 79.703 89.6991 83.0881 88.4753 86.5489L95.6211 90.7095Z" fill="#FFC840"/>
</g>
<mask id="mask61_2654_7370" style="mask-type:luminance" maskUnits="userSpaceOnUse" x="20" y="11" width="106" height="101">
<path d="M20.1335 11.7877H125.867V111.118H20.1335V11.7877Z" fill="white"/>
</mask>
<g mask="url(#mask61_2654_7370)">
<path d="M104.375 94.1185C104.309 93.6715 104.241 93.2301 104.173 92.7978C103.486 88.4747 102.707 84.8175 101.803 82.9437C101.551 82.4313 101.281 81.9425 100.993 81.4831C100.887 81.3149 100.78 81.1513 100.67 80.991C100.521 80.7765 100.372 80.5621 100.212 80.3589C99.4906 79.4333 98.7007 78.677 97.8764 78.1239C97.4071 77.8192 96.9262 77.5708 96.4454 77.4015C96.1478 77.2999 95.8502 77.2209 95.5525 77.1758C94.6138 77.029 93.7208 77.1871 92.9195 77.6273C92.3814 77.9275 91.888 78.3305 91.4267 78.8159C91.1416 79.1161 90.8692 79.448 90.607 79.8058C90.5154 79.9299 90.4353 80.0541 90.3437 80.1896C88.8749 82.3918 87.7931 85.4259 86.8738 88.232C86.733 88.6621 86.5956 89.0865 86.4629 89.5018C85.6729 91.94 84.9403 94.2539 84.2649 94.7957C83.6696 95.2811 83.0285 95.473 82.3302 95.3601C81.3342 95.2021 80.281 94.4345 79.285 93.1365C78.3119 91.861 78.1059 90.7548 77.8655 89.4793C77.6709 88.4747 77.4534 87.3346 76.8466 85.9688C75.5988 83.1469 73.023 81.6457 71.3974 82.0182C71.2921 82.0419 71.189 82.0735 71.0872 82.1096C69.5749 82.648 68.3648 84.4631 67.196 86.2284C65.559 88.6891 64.3913 90.2468 63.0977 89.5583C61.1515 88.5198 59.6518 84.8626 58.3239 81.6344C58.1522 81.228 57.9919 80.833 57.8316 80.4492C56.7738 77.9129 55.5672 75.6124 54.2816 73.6461C52.6732 71.1854 50.94 69.2496 49.2228 68.0328C45.8239 65.6376 42.251 65.6951 38.7846 68.1908C38.2809 68.5532 37.7806 68.9674 37.2826 69.4325C36.5499 70.121 35.4624 71.0353 34.4092 70.866C33.8368 70.7757 33.3216 70.3806 32.8179 69.6469C32.3486 68.9584 32.0051 68.1005 31.6502 67.1862C31.6388 67.1636 31.6273 67.1298 31.6159 67.1072C31.5014 66.8024 31.3755 66.4977 31.2496 66.1929C31.0549 65.7301 30.8374 65.2786 30.597 64.861C30.3108 64.3756 29.9903 63.9467 29.6239 63.5968C29.3263 63.3033 29.0172 63.0662 28.6967 62.8744C28.0098 62.468 27.2657 62.2761 26.5101 62.3325C25.4913 62.4116 24.7586 63.1791 24.2434 64.2514C24.1908 64.3598 24.1393 64.4704 24.0912 64.5844C23.9824 64.8395 23.884 65.107 23.797 65.3802C23.465 66.43 23.2704 67.6039 23.1559 68.631C23.1215 68.9922 23.0872 69.3422 23.0643 69.6582C23.0071 70.5274 22.9956 71.182 22.9956 71.4078C22.9956 71.6787 23.2131 71.9044 23.4764 71.927C23.6481 71.9383 23.797 71.8593 23.8885 71.7351C23.9343 71.6674 23.9687 71.5771 23.9687 71.4868C23.9687 70.9789 24.003 70.2339 24.0832 69.3986C24.1061 69.0713 24.1518 68.7213 24.1976 68.3601C24.303 67.5429 24.4609 66.6975 24.6784 65.9367C24.7677 65.6251 24.8662 65.3283 24.9761 65.0529C25.0574 64.8497 25.1444 64.6567 25.2394 64.4783C25.371 64.23 25.5153 64.011 25.6744 63.8338C25.9492 63.5065 26.2812 63.3146 26.6589 63.2807C26.8764 63.2581 27.1054 63.2694 27.3229 63.3146C27.4809 63.3462 27.6377 63.3925 27.7923 63.4534C28.0739 63.5629 28.3464 63.7198 28.6051 63.9241C28.6085 63.9275 28.6131 63.9297 28.6165 63.9331C29.047 64.2706 29.4328 64.7188 29.7613 65.2786C29.9788 65.6511 30.162 66.0575 30.3452 66.4864C30.4711 66.7912 30.597 67.0959 30.7115 67.4007C30.7229 67.4233 30.7229 67.4346 30.7344 67.4571C30.7722 67.5531 30.81 67.649 30.8489 67.745C31.1809 68.5791 31.5346 69.4234 32.0166 70.1323C32.6805 71.1143 33.459 71.6674 34.3176 71.8029C35.1762 71.9304 35.9936 71.6065 36.6988 71.1516C37.1784 70.8423 37.6054 70.472 37.958 70.1436C38.132 69.981 38.306 69.8253 38.4801 69.6763C39.9007 68.4583 41.3203 67.6942 42.733 67.3815C44.2315 67.0508 45.722 67.2291 47.1965 67.9143V69.9799V74.7512V77.2638V87.5434V92.4479L47.6773 92.4931V88.6496V77.5437V75.0311V70.2598V68.1592C47.6888 68.166 47.7002 68.1716 47.7117 68.1784C48.0322 68.359 48.3642 68.5622 48.6847 68.7879C50.1157 69.797 51.5639 71.3525 52.9399 73.3244C54.3079 75.284 55.605 77.6555 56.7441 80.3103C56.8059 80.4537 56.8666 80.597 56.9272 80.7415C57.0875 81.1366 57.2592 81.5317 57.4195 81.9267C57.653 82.4934 57.8877 83.0645 58.1258 83.6278C58.9398 85.5489 59.8029 87.3843 60.8333 88.7185C61.3725 89.4172 61.9574 89.9771 62.6054 90.3405V92.7956V101.094L63.0862 101.128V93.9018V90.5629C63.0977 90.5663 63.1091 90.5708 63.1206 90.5742C64.4932 91.0223 65.646 90.0222 66.7163 88.6304C67.1422 88.0751 67.5555 87.4577 67.9642 86.8447C67.9756 86.8278 67.9871 86.8109 67.9985 86.794C68.8147 85.567 69.6527 84.3129 70.5388 83.5736C70.9086 83.2654 71.2864 83.0465 71.6733 82.9562C71.9629 82.8907 72.3281 82.9313 72.738 83.069V84.8547V89.626V92.1386V104.187L73.2188 104.232V92.4163V89.9037V85.1324V83.2745C73.2302 83.2801 73.2417 83.2869 73.2531 83.2937C74.2262 83.7903 75.2908 84.8062 75.9548 86.3075C76.0384 86.496 76.1139 86.6788 76.1826 86.8583C76.5741 87.8798 76.7378 88.758 76.8935 89.6034C77.079 90.5922 77.2587 91.5449 77.7876 92.5642C77.9777 92.9288 78.2123 93.3024 78.5077 93.6896C79.6754 95.2134 80.9576 96.1277 82.2283 96.3196C82.8167 96.4099 83.3891 96.3467 83.9249 96.1378C84.2649 96.0047 84.59 95.8139 84.8956 95.5633C85.428 95.1355 85.8996 94.1456 86.3907 92.8024C86.7021 91.9501 87.0215 90.9568 87.3684 89.8743C87.4302 89.6847 87.492 89.4928 87.5538 89.2998C87.8435 88.4047 88.1491 87.4746 88.4765 86.5501C89.7003 83.0894 91.2321 79.7042 93.4358 78.4863C94.0906 78.1307 94.8336 78.0156 95.6223 78.1747V90.7096V93.9966V98.1775V102.949V104.512C95.6338 104.505 95.6464 104.497 95.659 104.491C95.6979 104.468 95.7368 104.447 95.7757 104.424C95.7918 104.415 95.8078 104.406 95.8227 104.397C95.8639 104.373 95.904 104.35 95.9452 104.327C95.9543 104.321 95.9635 104.317 95.9726 104.311C96.0196 104.284 96.0677 104.256 96.1146 104.229V103.235V98.4642V94.2833V90.9963V78.3079C96.1226 78.3102 96.1295 78.3136 96.1375 78.3158C96.1489 78.3158 96.1604 78.3158 96.1833 78.3271C97.4311 78.7673 98.656 79.8058 99.7092 81.2732C99.984 81.657 100.247 82.0746 100.499 82.5261C100.648 82.7857 100.785 83.0566 100.923 83.3388C101.793 85.1335 102.548 88.7682 103.224 93.0687C103.335 93.8058 103.447 94.561 103.558 95.3308C103.607 95.6683 103.655 96.0092 103.705 96.3534C103.804 97.077 103.903 97.8095 104 98.5466C104.013 98.5353 104.025 98.5252 104.037 98.5139C104.053 98.4992 104.069 98.4857 104.085 98.471C104.116 98.4439 104.146 98.4168 104.176 98.3897C104.189 98.3784 104.203 98.3671 104.215 98.3559C104.257 98.3186 104.299 98.2814 104.34 98.2441C104.336 98.2464 104.343 98.2419 104.34 98.2441C104.349 98.2362 104.367 98.2204 104.377 98.2114C104.411 98.1809 104.445 98.1504 104.48 98.1188C104.496 98.1041 104.512 98.0895 104.528 98.0748C104.567 98.0398 104.606 98.0037 104.644 97.9687C104.651 97.9631 104.657 97.9574 104.664 97.9518C104.709 97.9111 104.753 97.8705 104.797 97.8299C104.813 97.8152 104.828 97.8016 104.844 97.787C104.857 97.7745 104.871 97.761 104.885 97.7486C104.823 97.2926 104.761 96.8377 104.698 96.3873C104.592 95.6197 104.485 94.8612 104.375 94.1185Z" fill="white"/>
</g>
</g>
</svg>
