
        <svg xmlns="http://www.w3.org/2000/svg" xmlns:xlink="http://www.w3.org/1999/xlink" version="1.1" width="3187.5" 
        height="1156.7478826565575" viewBox="0 0 3187.5 1156.7478826565575">
			
			<g transform="scale(9.375) translate(10, 10)">
				<defs id="SvgjsDefs1453"><linearGradient id="SvgjsLinearGradient1458"><stop id="SvgjsStop1459" stop-color="#8f5e25" offset="0"></stop><stop id="SvgjsStop1460" stop-color="#fbf4a1" offset="0.5"></stop><stop id="SvgjsStop1461" stop-color="#8f5e25" offset="1"></stop></linearGradient><linearGradient id="SvgjsLinearGradient1462"><stop id="SvgjsStop1463" stop-color="#8f5e25" offset="0"></stop><stop id="SvgjsStop1464" stop-color="#fbf4a1" offset="0.5"></stop><stop id="SvgjsStop1465" stop-color="#8f5e25" offset="1"></stop></linearGradient></defs><g id="SvgjsG1454" featureKey="S6ay6y-0" transform="matrix(1.039592589349506,0,0,1.039592589349506,-1.587947104445299,0)" fill="url(#SvgjsLinearGradient1458)"><path xmlns="http://www.w3.org/2000/svg" fill-rule="evenodd" clip-rule="evenodd" d="M71.567,15.476L59.975,0L19.417,29.243H35.77L71.567,15.476z M82.479,29.243  l-4.625-12.508L43.142,29.243H82.479z M84.913,27.716h6.64c1.899,0,3.121,1.48,3.121,3.373v21.198l2.992-1.495l-0.03-21.297  c0-1.9-2.656-4.831-4.556-4.831h-9.379l1.06,2.854L84.913,27.716z M94.674,76.706v17.43c1.732-0.184,3.045-1.739,3.045-3.518  l-0.023-15.423L94.674,76.706z M7.939,27.716h0.435h8.349l4.258-3.052h-9.966l0.069-0.023c-7.372-0.007-9.624,0.077-9.555,9.249  v62.04c0,1.901,1.893,3.519,3.793,3.519h83.179c1.899,0,3.808-1.565,3.808-3.457l-0.007-16.566l-0.367,0.183h-7.631  c-6.746,0-12.211-5.464-12.211-12.21s5.465-12.209,12.211-12.209h7.631l0.358-0.184l-0.008-20.788c0-1.9-1.885-3.449-3.784-3.449  H11.008c-0.275-0.007-0.528-0.023-0.756-0.061H8.374c-0.839,0-1.526-0.688-1.526-1.526C6.848,28.486,7.306,27.899,7.939,27.716z   M91.935,58.24h-7.631c-5.061,0-9.158,4.098-9.158,9.157c0,5.059,4.098,9.157,9.158,9.157h7.631l5.738-4.815L97.65,53.547  L91.935,58.24z M79.725,67.397c0-2.525,2.053-4.577,4.579-4.577c2.525,0,4.578,2.052,4.578,4.577c0,2.526-2.053,4.579-4.578,4.579  C81.777,71.977,79.725,69.924,79.725,67.397z"></path></g><g id="SvgjsG1455" featureKey="j5pGhi-0" transform="matrix(1.934263778670592,0,0,1.934263778670592,116.46764747115878,28.61318819566653)" fill="url(#SvgjsLinearGradient1462)"><path d="M1.8262 4.941000000000001 l2.8809 0 q2.412109375 0 3.271484375 0.1953125 q1.2890625 0.29296875 2.099609375 1.264648438 t0.81055 2.3877 q0 1.19140625 -0.556640625 2.080078125 t-1.5967 1.3525 t-1.8018 0.46387 l4.1504 6.7383 l-1.7773 0 l-4.1504 -6.7383 l-1.8848 0 l0 6.7383 l-1.4453 0 l0 -14.482 z M3.2715 6.356999999999999 l0 4.9219 l2.4902 0.019531 q1.4453125 0 2.143554688 -0.2734375 t1.084 -0.87891 t0.38574 -1.3574 q0 -0.72265625 -0.3955078125 -1.318359375 t-1.0303 -0.85449 t-2.1289 -0.25879 l-2.5488 0 z M18.808596875 8.203 q2.470703125 0 4.1015625 1.787109375 q1.474609375 1.640625 1.474609375 3.876953125 t-1.5625 3.9111 t-4.0137 1.6748 q-2.4609375 0 -4.018554688 -1.674804688 t-1.5576 -3.9111 q0 -2.2265625 1.474609375 -3.8671875 q1.630859375 -1.796875 4.1015625 -1.796875 z M18.808596875 9.551 q-1.708984375 0 -2.939453125 1.26953125 t-1.2305 3.0664 q0 1.162109375 0.5615234375 2.172851563 t1.5186 1.5527 t2.0898 0.54199 q1.15234375 0 2.104492188 -0.5419921875 t1.5088 -1.5527 t0.55664 -2.1729 q0 -1.796875 -1.23046875 -3.06640625 t-2.9395 -1.2695 z M27.783225 17.3633 q-0.87890625 -1.46484375 -1.0546875 -2.880859375 q0 -10.16601563 0 -10.14648438 l1.3672 0 l0 5.9766 q0.869140625 -1.064453125 1.943359375 -1.586914063 t2.3535 -0.52246 q2.265625 0 3.876953125 1.650390625 t1.6113 4.0039 q0 2.314453125 -1.62109375 3.955078125 t-3.9063 1.6406 q-1.30859375 0 -2.456054688 -0.5029296875 t-2.1143 -1.5869 z M32.236325 18.1348 q1.162109375 0 2.133789063 -0.5712890625 t1.5479 -1.5869 t0.57617 -2.168 q0 -1.1328125 -0.5810546875 -2.172851563 t-1.5625 -1.6113 t-2.0947 -0.57129 q-1.1328125 0 -2.1484375 0.5712890625 t-1.5625 1.5527 t-0.54688 2.1924 q0 1.865234375 1.23046875 3.115234375 t3.0078 1.25 z M45.703128125 8.203 q2.470703125 0 4.1015625 1.787109375 q1.474609375 1.640625 1.474609375 3.876953125 t-1.5625 3.9111 t-4.0137 1.6748 q-2.4609375 0 -4.018554688 -1.674804688 t-1.5576 -3.9111 q0 -2.2265625 1.474609375 -3.8671875 q1.630859375 -1.796875 4.1015625 -1.796875 z M45.703128125 9.551 q-1.708984375 0 -2.939453125 1.26953125 t-1.2305 3.0664 q0 1.162109375 0.5615234375 2.172851563 t1.5186 1.5527 t2.0898 0.54199 q1.15234375 0 2.104492188 -0.5419921875 t1.5088 -1.5527 t0.55664 -2.1729 q0 -1.796875 -1.23046875 -3.06640625 t-2.9395 -1.2695 z M52.84179625 16.4941 l1.2305 -0.74219 q1.298828125 2.392578125 2.998046875 2.392578125 q0.732421875 0 1.376953125 -0.341796875 t0.97656 -0.9082 t0.33203 -1.2109 q0 -0.72265625 -0.48828125 -1.42578125 q-0.68359375 -0.966796875 -2.490234375 -1.97265625 q-1.81640625 -1.3671875 -2.24609375 -1.982421875 q-0.771484375 -1.015625 -0.771484375 -2.216796875 q0 -0.947265625 0.44921875 -1.71875 t1.2744 -1.2256 t1.792 -0.4541 q1.015625 0 1.904296875 0.5126953125 t1.8848 1.8701 l-1.1816 0.88867 q-0.810546875 -1.07421875 -1.38671875 -1.420898438 t-1.2598 -0.34668 q-0.869140625 0 -1.42578125 0.5322265625 t-0.55664 1.3037 q0 0.46875 0.1953125 0.91796875 t0.72266 0.95703 q0.283203125 0.283203125 1.875 1.455078125 q1.875 1.38671875 2.573242188 2.294921875 t0.69824 1.9922 q0 1.58203125 -1.196289063 2.744140625 t-2.9053 1.1621 q-1.328125 0 -2.40234375 -0.703125 t-1.9727 -2.3535 z M67.705053125 17.9297 q-1.015625 0.546875 -1.9921875 0.087890625 q-1.19140625 -0.908203125 -1.1328125 -2.587890625 l0 -4.5313 l2.5391 0 l0 -1.1816 l-2.5488 0 l0 -5.1758 l-1.3867 0 l0 11.123 q-0.01953125 1.171875 0.537109375 2.1484375 q0.91796875 1.552734375 2.5 1.640625 q0.83984375 0.029296875 1.9140625 -0.380859375 q-0.166015625 -0.41015625 -0.4296875 -1.142578125 z M75.390628125 8.203 q2.470703125 0 4.1015625 1.787109375 q1.474609375 1.640625 1.474609375 3.876953125 t-1.5625 3.9111 t-4.0137 1.6748 q-2.4609375 0 -4.018554688 -1.674804688 t-1.5576 -3.9111 q0 -2.2265625 1.474609375 -3.8671875 q1.630859375 -1.796875 4.1015625 -1.796875 z M75.390628125 9.551 q-1.708984375 0 -2.939453125 1.26953125 t-1.2305 3.0664 q0 1.162109375 0.5615234375 2.172851563 t1.5186 1.5527 t2.0898 0.54199 q1.15234375 0 2.104492188 -0.5419921875 t1.5088 -1.5527 t0.55664 -2.1729 q0 -1.796875 -1.23046875 -3.06640625 t-2.9395 -1.2695 z M93.89665625 10.7031 l-1.0938 0.68359 q-1.416015625 -1.89453125 -3.8671875 -1.89453125 q-1.962890625 0 -3.256835938 1.259765625 t-1.2939 3.0664 q0 1.171875 0.595703125 2.211914063 t1.6309 1.6064 t2.3242 0.56641 q2.373046875 0 3.8671875 -1.875 l1.0938 0.71289 q-0.771484375 1.15234375 -2.065429688 1.782226563 t-2.9541 0.62988 q-2.529296875 0 -4.204101563 -1.611328125 t-1.6748 -3.916 q0 -1.5625 0.7861328125 -2.895507813 t2.1484 -2.0801 t3.0615 -0.74707 q1.0546875 0 2.045898438 0.322265625 t1.6846 0.84473 t1.1719 1.333 z M96.5137 4.59 l1.3867 0 l0 8.457 l4.9512 -4.3164 l2.0313 0 l-4.4824 4.0723 l4.8242 6.6406 l-1.9531 0 l-4.2188 -5.7617 l-1.1523 0.94727 l0 4.8145 l-1.3867 0 l0 -14.854 z"></path></g>
			</g>
		</svg>
	